ISO-10303-21;
HEADER;
/* Generated by software containing ST-Developer
 * from STEP Tools, Inc. (www.steptools.com) 
 */
/* OPTION: using custom renumber hook */

FILE_DESCRIPTION(
/* description */ ('STEP AP242 Edition 2',
'CAx-IF Rec.Pracs.---Representation and Presentation of Product Manufa
cturing Information (PMI)---4.0---2014-10-13',
'CAx-IF Rec.Pracs.---3D Tessellated Geometry---0.4---2014-09-14','2;1',
'CAx-IF Rec.Pracs.---User Defined Attributes---1.5---2016-08-15'),
/* implementation_level */ '2;1');

FILE_NAME(
/* name */ 'case new - bottom case',
/* time_stamp */ '2026-08-29T02:00:56Z',
/* author */ (''),
/* organization */ (''),
/* preprocessor_version */ 'ST-DEVELOPER v20',
/* originating_system */ 'ONSHAPE BY PTC INC, 1.220',
/* authorisation */ '  ');

FILE_SCHEMA (('AP242_MANAGED_MODEL_BASED_3D_ENGINEERING_MIM_LF { 1 0 10303 442 3 1 4 }'));
ENDSEC;

DATA;
#10=SHAPE_REPRESENTATION_RELATIONSHIP('','',#1326,#11);
#11=ADVANCED_BREP_SHAPE_REPRESENTATION('',(#1324),#2317);
#12=TOROIDAL_SURFACE('',#1495,0.00599999850585001,0.0004);
#13=TOROIDAL_SURFACE('',#1497,0.00599999850585005,0.0004);
#14=TOROIDAL_SURFACE('',#1503,0.00599999850584999,0.0004);
#15=TOROIDAL_SURFACE('',#1505,0.00599999850585002,0.0004);
#16=CYLINDRICAL_SURFACE('',#1361,0.00399999850585003);
#17=CYLINDRICAL_SURFACE('',#1363,0.00399999850585006);
#18=CYLINDRICAL_SURFACE('',#1365,0.00399999850585003);
#19=CYLINDRICAL_SURFACE('',#1368,0.00399999850585001);
#20=CYLINDRICAL_SURFACE('',#1389,0.0024);
#21=CYLINDRICAL_SURFACE('',#1392,0.003);
#22=CYLINDRICAL_SURFACE('',#1396,0.0024);
#23=CYLINDRICAL_SURFACE('',#1399,0.003);
#24=CYLINDRICAL_SURFACE('',#1403,0.0024);
#25=CYLINDRICAL_SURFACE('',#1406,0.003);
#26=CYLINDRICAL_SURFACE('',#1410,0.0024);
#27=CYLINDRICAL_SURFACE('',#1413,0.003);
#28=CYLINDRICAL_SURFACE('',#1417,0.00639999850585001);
#29=CYLINDRICAL_SURFACE('',#1419,0.00639999850585005);
#30=CYLINDRICAL_SURFACE('',#1421,0.00639999850585002);
#31=CYLINDRICAL_SURFACE('',#1424,0.00639999850584999);
#32=CYLINDRICAL_SURFACE('',#1431,0.0011);
#33=CYLINDRICAL_SURFACE('',#1434,0.0011);
#34=CYLINDRICAL_SURFACE('',#1437,0.0011);
#35=CYLINDRICAL_SURFACE('',#1440,0.0011);
#36=CYLINDRICAL_SURFACE('',#1443,0.0011);
#37=CYLINDRICAL_SURFACE('',#1446,0.0011);
#38=CYLINDRICAL_SURFACE('',#1449,0.0011);
#39=CYLINDRICAL_SURFACE('',#1452,0.0011);
#40=CYLINDRICAL_SURFACE('',#1455,0.0011);
#41=CYLINDRICAL_SURFACE('',#1458,0.0011);
#42=CYLINDRICAL_SURFACE('',#1461,0.0011);
#43=CYLINDRICAL_SURFACE('',#1464,0.0011);
#44=CYLINDRICAL_SURFACE('',#1467,0.0011);
#45=CYLINDRICAL_SURFACE('',#1470,0.0011);
#46=CYLINDRICAL_SURFACE('',#1474,0.00137);
#47=CYLINDRICAL_SURFACE('',#1476,0.00137000000000003);
#48=CYLINDRICAL_SURFACE('',#1478,0.00137);
#49=CYLINDRICAL_SURFACE('',#1480,0.00137);
#50=CYLINDRICAL_SURFACE('',#1483,0.0024);
#51=CYLINDRICAL_SURFACE('',#1485,0.000200000000000022);
#52=CYLINDRICAL_SURFACE('',#1487,0.000200000000000021);
#53=CYLINDRICAL_SURFACE('',#1489,0.000200000000000028);
#54=CYLINDRICAL_SURFACE('',#1491,0.000200000000000021);
#55=CYLINDRICAL_SURFACE('',#1492,0.0004);
#56=CYLINDRICAL_SURFACE('',#1499,0.0004);
#57=CYLINDRICAL_SURFACE('',#1501,0.0004);
#58=CYLINDRICAL_SURFACE('',#1507,0.0004);
#59=CIRCLE('',#1329,0.000200000000000021);
#60=CIRCLE('',#1330,0.000200000000000022);
#61=CIRCLE('',#1331,0.000200000000000021);
#62=CIRCLE('',#1332,0.000200000000000028);
#63=CIRCLE('',#1334,0.000200000000000022);
#64=CIRCLE('',#1335,0.000200000000000021);
#65=CIRCLE('',#1336,0.000200000000000028);
#66=CIRCLE('',#1337,0.000200000000000021);
#67=CIRCLE('',#1339,0.0024);
#68=CIRCLE('',#1341,0.003);
#69=CIRCLE('',#1342,0.003);
#70=CIRCLE('',#1343,0.003);
#71=CIRCLE('',#1344,0.003);
#72=CIRCLE('',#1345,0.00399999850585003);
#73=CIRCLE('',#1346,0.00399999850585006);
#74=CIRCLE('',#1347,0.00399999850585003);
#75=CIRCLE('',#1348,0.00399999850585001);
#76=CIRCLE('',#1350,0.0024);
#77=CIRCLE('',#1352,0.00137);
#78=CIRCLE('',#1353,0.00137000000000003);
#79=CIRCLE('',#1354,0.00137);
#80=CIRCLE('',#1355,0.00137);
#81=CIRCLE('',#1357,0.00137);
#82=CIRCLE('',#1358,0.00137);
#83=CIRCLE('',#1359,0.00137);
#84=CIRCLE('',#1360,0.00137000000000003);
#85=CIRCLE('',#1362,0.00399999850585003);
#86=CIRCLE('',#1364,0.00399999850585006);
#87=CIRCLE('',#1366,0.00399999850585003);
#88=CIRCLE('',#1369,0.00399999850585001);
#89=CIRCLE('',#1371,0.0011);
#90=CIRCLE('',#1372,0.0011);
#91=CIRCLE('',#1373,0.0011);
#92=CIRCLE('',#1374,0.0011);
#93=CIRCLE('',#1375,0.0011);
#94=CIRCLE('',#1376,0.0011);
#95=CIRCLE('',#1377,0.0011);
#96=CIRCLE('',#1378,0.0011);
#97=CIRCLE('',#1379,0.0011);
#98=CIRCLE('',#1380,0.0011);
#99=CIRCLE('',#1381,0.0011);
#100=CIRCLE('',#1382,0.0011);
#101=CIRCLE('',#1383,0.0011);
#102=CIRCLE('',#1384,0.0011);
#103=CIRCLE('',#1385,0.00639999850585001);
#104=CIRCLE('',#1386,0.00639999850585005);
#105=CIRCLE('',#1387,0.00639999850585002);
#106=CIRCLE('',#1388,0.00639999850584999);
#107=CIRCLE('',#1390,0.0024);
#108=CIRCLE('',#1391,0.0024);
#109=CIRCLE('',#1393,0.003);
#110=CIRCLE('',#1397,0.0024);
#111=CIRCLE('',#1398,0.0024);
#112=CIRCLE('',#1400,0.003);
#113=CIRCLE('',#1404,0.0024);
#114=CIRCLE('',#1405,0.0024);
#115=CIRCLE('',#1407,0.003);
#116=CIRCLE('',#1411,0.0024);
#117=CIRCLE('',#1412,0.0024);
#118=CIRCLE('',#1414,0.003);
#119=CIRCLE('',#1418,0.00639999850585001);
#120=CIRCLE('',#1420,0.00639999850585005);
#121=CIRCLE('',#1422,0.00639999850585002);
#122=CIRCLE('',#1425,0.00639999850584999);
#123=CIRCLE('',#1427,0.00599999850584999);
#124=CIRCLE('',#1428,0.00599999850585002);
#125=CIRCLE('',#1429,0.00599999850585005);
#126=CIRCLE('',#1430,0.00599999850585001);
#127=CIRCLE('',#1432,0.0011);
#128=CIRCLE('',#1435,0.0011);
#129=CIRCLE('',#1438,0.0011);
#130=CIRCLE('',#1441,0.0011);
#131=CIRCLE('',#1444,0.0011);
#132=CIRCLE('',#1447,0.0011);
#133=CIRCLE('',#1450,0.0011);
#134=CIRCLE('',#1453,0.0011);
#135=CIRCLE('',#1456,0.0011);
#136=CIRCLE('',#1459,0.0011);
#137=CIRCLE('',#1462,0.0011);
#138=CIRCLE('',#1465,0.0011);
#139=CIRCLE('',#1468,0.0011);
#140=CIRCLE('',#1471,0.0011);
#141=CIRCLE('',#1482,0.0024);
#142=CIRCLE('',#1493,0.0004);
#143=CIRCLE('',#1494,0.0004);
#144=CIRCLE('',#1496,0.0004);
#145=CIRCLE('',#1498,0.0004);
#146=CIRCLE('',#1500,0.0004);
#147=CIRCLE('',#1502,0.0004);
#148=CIRCLE('',#1504,0.0004);
#149=CIRCLE('',#1506,0.0004);
#150=ORIENTED_EDGE('',*,*,#476,.F.);
#151=ORIENTED_EDGE('',*,*,#477,.T.);
#152=ORIENTED_EDGE('',*,*,#478,.T.);
#153=ORIENTED_EDGE('',*,*,#479,.F.);
#154=ORIENTED_EDGE('',*,*,#480,.F.);
#155=ORIENTED_EDGE('',*,*,#481,.T.);
#156=ORIENTED_EDGE('',*,*,#482,.F.);
#157=ORIENTED_EDGE('',*,*,#483,.F.);
#158=ORIENTED_EDGE('',*,*,#484,.F.);
#159=ORIENTED_EDGE('',*,*,#485,.F.);
#160=ORIENTED_EDGE('',*,*,#486,.F.);
#161=ORIENTED_EDGE('',*,*,#487,.T.);
#162=ORIENTED_EDGE('',*,*,#488,.F.);
#163=ORIENTED_EDGE('',*,*,#489,.T.);
#164=ORIENTED_EDGE('',*,*,#490,.T.);
#165=ORIENTED_EDGE('',*,*,#491,.T.);
#166=ORIENTED_EDGE('',*,*,#492,.F.);
#167=ORIENTED_EDGE('',*,*,#493,.T.);
#168=ORIENTED_EDGE('',*,*,#494,.F.);
#169=ORIENTED_EDGE('',*,*,#495,.T.);
#170=ORIENTED_EDGE('',*,*,#496,.F.);
#171=ORIENTED_EDGE('',*,*,#497,.F.);
#172=ORIENTED_EDGE('',*,*,#498,.F.);
#173=ORIENTED_EDGE('',*,*,#499,.F.);
#174=ORIENTED_EDGE('',*,*,#500,.T.);
#175=ORIENTED_EDGE('',*,*,#501,.T.);
#176=ORIENTED_EDGE('',*,*,#502,.T.);
#177=ORIENTED_EDGE('',*,*,#503,.T.);
#178=ORIENTED_EDGE('',*,*,#504,.F.);
#179=ORIENTED_EDGE('',*,*,#505,.F.);
#180=ORIENTED_EDGE('',*,*,#506,.F.);
#181=ORIENTED_EDGE('',*,*,#507,.F.);
#182=ORIENTED_EDGE('',*,*,#508,.F.);
#183=ORIENTED_EDGE('',*,*,#509,.F.);
#184=ORIENTED_EDGE('',*,*,#510,.F.);
#185=ORIENTED_EDGE('',*,*,#511,.F.);
#186=ORIENTED_EDGE('',*,*,#512,.F.);
#187=ORIENTED_EDGE('',*,*,#500,.F.);
#188=ORIENTED_EDGE('',*,*,#513,.F.);
#189=ORIENTED_EDGE('',*,*,#514,.F.);
#190=ORIENTED_EDGE('',*,*,#515,.F.);
#191=ORIENTED_EDGE('',*,*,#477,.F.);
#192=ORIENTED_EDGE('',*,*,#516,.F.);
#193=ORIENTED_EDGE('',*,*,#517,.F.);
#194=ORIENTED_EDGE('',*,*,#518,.F.);
#195=ORIENTED_EDGE('',*,*,#502,.F.);
#196=ORIENTED_EDGE('',*,*,#519,.F.);
#197=ORIENTED_EDGE('',*,*,#520,.T.);
#198=ORIENTED_EDGE('',*,*,#521,.T.);
#199=ORIENTED_EDGE('',*,*,#522,.T.);
#200=ORIENTED_EDGE('',*,*,#523,.F.);
#201=ORIENTED_EDGE('',*,*,#524,.F.);
#202=ORIENTED_EDGE('',*,*,#525,.F.);
#203=ORIENTED_EDGE('',*,*,#526,.F.);
#204=ORIENTED_EDGE('',*,*,#527,.F.);
#205=ORIENTED_EDGE('',*,*,#528,.F.);
#206=ORIENTED_EDGE('',*,*,#529,.F.);
#207=ORIENTED_EDGE('',*,*,#530,.F.);
#208=ORIENTED_EDGE('',*,*,#531,.F.);
#209=ORIENTED_EDGE('',*,*,#532,.F.);
#210=ORIENTED_EDGE('',*,*,#514,.T.);
#211=ORIENTED_EDGE('',*,*,#533,.T.);
#212=ORIENTED_EDGE('',*,*,#534,.F.);
#213=ORIENTED_EDGE('',*,*,#535,.F.);
#214=ORIENTED_EDGE('',*,*,#536,.F.);
#215=ORIENTED_EDGE('',*,*,#537,.F.);
#216=ORIENTED_EDGE('',*,*,#538,.F.);
#217=ORIENTED_EDGE('',*,*,#539,.F.);
#218=ORIENTED_EDGE('',*,*,#540,.F.);
#219=ORIENTED_EDGE('',*,*,#541,.F.);
#220=ORIENTED_EDGE('',*,*,#542,.F.);
#221=ORIENTED_EDGE('',*,*,#543,.F.);
#222=ORIENTED_EDGE('',*,*,#544,.T.);
#223=ORIENTED_EDGE('',*,*,#545,.T.);
#224=ORIENTED_EDGE('',*,*,#546,.T.);
#225=ORIENTED_EDGE('',*,*,#533,.F.);
#226=ORIENTED_EDGE('',*,*,#513,.T.);
#227=ORIENTED_EDGE('',*,*,#505,.T.);
#228=ORIENTED_EDGE('',*,*,#547,.F.);
#229=ORIENTED_EDGE('',*,*,#478,.F.);
#230=ORIENTED_EDGE('',*,*,#515,.T.);
#231=ORIENTED_EDGE('',*,*,#532,.T.);
#232=ORIENTED_EDGE('',*,*,#548,.F.);
#233=ORIENTED_EDGE('',*,*,#549,.F.);
#234=ORIENTED_EDGE('',*,*,#516,.T.);
#235=ORIENTED_EDGE('',*,*,#476,.T.);
#236=ORIENTED_EDGE('',*,*,#550,.F.);
#237=ORIENTED_EDGE('',*,*,#551,.F.);
#238=ORIENTED_EDGE('',*,*,#517,.T.);
#239=ORIENTED_EDGE('',*,*,#549,.T.);
#240=ORIENTED_EDGE('',*,*,#552,.F.);
#241=ORIENTED_EDGE('',*,*,#503,.F.);
#242=ORIENTED_EDGE('',*,*,#518,.T.);
#243=ORIENTED_EDGE('',*,*,#551,.T.);
#244=ORIENTED_EDGE('',*,*,#553,.F.);
#245=ORIENTED_EDGE('',*,*,#554,.F.);
#246=ORIENTED_EDGE('',*,*,#555,.F.);
#247=ORIENTED_EDGE('',*,*,#556,.F.);
#248=ORIENTED_EDGE('',*,*,#557,.F.);
#249=ORIENTED_EDGE('',*,*,#558,.F.);
#250=ORIENTED_EDGE('',*,*,#559,.F.);
#251=ORIENTED_EDGE('',*,*,#560,.F.);
#252=ORIENTED_EDGE('',*,*,#561,.F.);
#253=ORIENTED_EDGE('',*,*,#562,.F.);
#254=ORIENTED_EDGE('',*,*,#563,.F.);
#255=ORIENTED_EDGE('',*,*,#564,.F.);
#256=ORIENTED_EDGE('',*,*,#565,.F.);
#257=ORIENTED_EDGE('',*,*,#566,.F.);
#258=ORIENTED_EDGE('',*,*,#567,.F.);
#259=ORIENTED_EDGE('',*,*,#547,.T.);
#260=ORIENTED_EDGE('',*,*,#504,.T.);
#261=ORIENTED_EDGE('',*,*,#553,.T.);
#262=ORIENTED_EDGE('',*,*,#552,.T.);
#263=ORIENTED_EDGE('',*,*,#550,.T.);
#264=ORIENTED_EDGE('',*,*,#479,.T.);
#265=ORIENTED_EDGE('',*,*,#548,.T.);
#266=ORIENTED_EDGE('',*,*,#534,.T.);
#267=ORIENTED_EDGE('',*,*,#522,.F.);
#268=ORIENTED_EDGE('',*,*,#568,.T.);
#269=ORIENTED_EDGE('',*,*,#546,.F.);
#270=ORIENTED_EDGE('',*,*,#569,.T.);
#271=ORIENTED_EDGE('',*,*,#491,.F.);
#272=ORIENTED_EDGE('',*,*,#570,.T.);
#273=ORIENTED_EDGE('',*,*,#571,.F.);
#274=ORIENTED_EDGE('',*,*,#572,.T.);
#275=ORIENTED_EDGE('',*,*,#573,.T.);
#276=ORIENTED_EDGE('',*,*,#574,.F.);
#277=ORIENTED_EDGE('',*,*,#575,.F.);
#278=ORIENTED_EDGE('',*,*,#506,.T.);
#279=ORIENTED_EDGE('',*,*,#573,.F.);
#280=ORIENTED_EDGE('',*,*,#575,.T.);
#281=ORIENTED_EDGE('',*,*,#574,.T.);
#282=ORIENTED_EDGE('',*,*,#576,.T.);
#283=ORIENTED_EDGE('',*,*,#577,.F.);
#284=ORIENTED_EDGE('',*,*,#578,.F.);
#285=ORIENTED_EDGE('',*,*,#507,.T.);
#286=ORIENTED_EDGE('',*,*,#576,.F.);
#287=ORIENTED_EDGE('',*,*,#578,.T.);
#288=ORIENTED_EDGE('',*,*,#577,.T.);
#289=ORIENTED_EDGE('',*,*,#579,.T.);
#290=ORIENTED_EDGE('',*,*,#580,.F.);
#291=ORIENTED_EDGE('',*,*,#581,.F.);
#292=ORIENTED_EDGE('',*,*,#508,.T.);
#293=ORIENTED_EDGE('',*,*,#579,.F.);
#294=ORIENTED_EDGE('',*,*,#581,.T.);
#295=ORIENTED_EDGE('',*,*,#580,.T.);
#296=ORIENTED_EDGE('',*,*,#582,.T.);
#297=ORIENTED_EDGE('',*,*,#583,.F.);
#298=ORIENTED_EDGE('',*,*,#584,.F.);
#299=ORIENTED_EDGE('',*,*,#509,.T.);
#300=ORIENTED_EDGE('',*,*,#582,.F.);
#301=ORIENTED_EDGE('',*,*,#584,.T.);
#302=ORIENTED_EDGE('',*,*,#583,.T.);
#303=ORIENTED_EDGE('',*,*,#521,.F.);
#304=ORIENTED_EDGE('',*,*,#585,.T.);
#305=ORIENTED_EDGE('',*,*,#543,.T.);
#306=ORIENTED_EDGE('',*,*,#568,.F.);
#307=ORIENTED_EDGE('',*,*,#545,.F.);
#308=ORIENTED_EDGE('',*,*,#586,.T.);
#309=ORIENTED_EDGE('',*,*,#488,.T.);
#310=ORIENTED_EDGE('',*,*,#569,.F.);
#311=ORIENTED_EDGE('',*,*,#490,.F.);
#312=ORIENTED_EDGE('',*,*,#587,.T.);
#313=ORIENTED_EDGE('',*,*,#588,.T.);
#314=ORIENTED_EDGE('',*,*,#570,.F.);
#315=ORIENTED_EDGE('',*,*,#588,.F.);
#316=ORIENTED_EDGE('',*,*,#589,.T.);
#317=ORIENTED_EDGE('',*,*,#590,.T.);
#318=ORIENTED_EDGE('',*,*,#571,.T.);
#319=ORIENTED_EDGE('',*,*,#590,.F.);
#320=ORIENTED_EDGE('',*,*,#591,.T.);
#321=ORIENTED_EDGE('',*,*,#519,.T.);
#322=ORIENTED_EDGE('',*,*,#572,.F.);
#323=ORIENTED_EDGE('',*,*,#592,.T.);
#324=ORIENTED_EDGE('',*,*,#593,.T.);
#325=ORIENTED_EDGE('',*,*,#594,.T.);
#326=ORIENTED_EDGE('',*,*,#595,.T.);
#327=ORIENTED_EDGE('',*,*,#596,.T.);
#328=ORIENTED_EDGE('',*,*,#597,.T.);
#329=ORIENTED_EDGE('',*,*,#598,.T.);
#330=ORIENTED_EDGE('',*,*,#599,.T.);
#331=ORIENTED_EDGE('',*,*,#600,.F.);
#332=ORIENTED_EDGE('',*,*,#567,.T.);
#333=ORIENTED_EDGE('',*,*,#600,.T.);
#334=ORIENTED_EDGE('',*,*,#601,.F.);
#335=ORIENTED_EDGE('',*,*,#566,.T.);
#336=ORIENTED_EDGE('',*,*,#601,.T.);
#337=ORIENTED_EDGE('',*,*,#602,.F.);
#338=ORIENTED_EDGE('',*,*,#565,.T.);
#339=ORIENTED_EDGE('',*,*,#602,.T.);
#340=ORIENTED_EDGE('',*,*,#603,.F.);
#341=ORIENTED_EDGE('',*,*,#564,.T.);
#342=ORIENTED_EDGE('',*,*,#603,.T.);
#343=ORIENTED_EDGE('',*,*,#604,.F.);
#344=ORIENTED_EDGE('',*,*,#563,.T.);
#345=ORIENTED_EDGE('',*,*,#604,.T.);
#346=ORIENTED_EDGE('',*,*,#605,.F.);
#347=ORIENTED_EDGE('',*,*,#562,.T.);
#348=ORIENTED_EDGE('',*,*,#605,.T.);
#349=ORIENTED_EDGE('',*,*,#606,.F.);
#350=ORIENTED_EDGE('',*,*,#561,.T.);
#351=ORIENTED_EDGE('',*,*,#606,.T.);
#352=ORIENTED_EDGE('',*,*,#607,.F.);
#353=ORIENTED_EDGE('',*,*,#560,.T.);
#354=ORIENTED_EDGE('',*,*,#607,.T.);
#355=ORIENTED_EDGE('',*,*,#608,.F.);
#356=ORIENTED_EDGE('',*,*,#559,.T.);
#357=ORIENTED_EDGE('',*,*,#608,.T.);
#358=ORIENTED_EDGE('',*,*,#609,.F.);
#359=ORIENTED_EDGE('',*,*,#558,.T.);
#360=ORIENTED_EDGE('',*,*,#609,.T.);
#361=ORIENTED_EDGE('',*,*,#610,.F.);
#362=ORIENTED_EDGE('',*,*,#557,.T.);
#363=ORIENTED_EDGE('',*,*,#610,.T.);
#364=ORIENTED_EDGE('',*,*,#611,.F.);
#365=ORIENTED_EDGE('',*,*,#556,.T.);
#366=ORIENTED_EDGE('',*,*,#611,.T.);
#367=ORIENTED_EDGE('',*,*,#612,.F.);
#368=ORIENTED_EDGE('',*,*,#555,.T.);
#369=ORIENTED_EDGE('',*,*,#612,.T.);
#370=ORIENTED_EDGE('',*,*,#613,.F.);
#371=ORIENTED_EDGE('',*,*,#554,.T.);
#372=ORIENTED_EDGE('',*,*,#613,.T.);
#373=ORIENTED_EDGE('',*,*,#524,.T.);
#374=ORIENTED_EDGE('',*,*,#614,.T.);
#375=ORIENTED_EDGE('',*,*,#536,.T.);
#376=ORIENTED_EDGE('',*,*,#615,.F.);
#377=ORIENTED_EDGE('',*,*,#525,.T.);
#378=ORIENTED_EDGE('',*,*,#615,.T.);
#379=ORIENTED_EDGE('',*,*,#535,.T.);
#380=ORIENTED_EDGE('',*,*,#616,.F.);
#381=ORIENTED_EDGE('',*,*,#526,.T.);
#382=ORIENTED_EDGE('',*,*,#616,.T.);
#383=ORIENTED_EDGE('',*,*,#542,.T.);
#384=ORIENTED_EDGE('',*,*,#617,.F.);
#385=ORIENTED_EDGE('',*,*,#527,.T.);
#386=ORIENTED_EDGE('',*,*,#617,.T.);
#387=ORIENTED_EDGE('',*,*,#541,.T.);
#388=ORIENTED_EDGE('',*,*,#618,.F.);
#389=ORIENTED_EDGE('',*,*,#528,.T.);
#390=ORIENTED_EDGE('',*,*,#618,.T.);
#391=ORIENTED_EDGE('',*,*,#540,.T.);
#392=ORIENTED_EDGE('',*,*,#619,.F.);
#393=ORIENTED_EDGE('',*,*,#529,.T.);
#394=ORIENTED_EDGE('',*,*,#619,.T.);
#395=ORIENTED_EDGE('',*,*,#539,.T.);
#396=ORIENTED_EDGE('',*,*,#620,.F.);
#397=ORIENTED_EDGE('',*,*,#530,.T.);
#398=ORIENTED_EDGE('',*,*,#620,.T.);
#399=ORIENTED_EDGE('',*,*,#538,.T.);
#400=ORIENTED_EDGE('',*,*,#621,.F.);
#401=ORIENTED_EDGE('',*,*,#531,.T.);
#402=ORIENTED_EDGE('',*,*,#621,.T.);
#403=ORIENTED_EDGE('',*,*,#537,.T.);
#404=ORIENTED_EDGE('',*,*,#614,.F.);
#405=ORIENTED_EDGE('',*,*,#511,.T.);
#406=ORIENTED_EDGE('',*,*,#622,.T.);
#407=ORIENTED_EDGE('',*,*,#523,.T.);
#408=ORIENTED_EDGE('',*,*,#510,.T.);
#409=ORIENTED_EDGE('',*,*,#501,.F.);
#410=ORIENTED_EDGE('',*,*,#512,.T.);
#411=ORIENTED_EDGE('',*,*,#622,.F.);
#412=ORIENTED_EDGE('',*,*,#623,.T.);
#413=ORIENTED_EDGE('',*,*,#493,.F.);
#414=ORIENTED_EDGE('',*,*,#624,.F.);
#415=ORIENTED_EDGE('',*,*,#481,.F.);
#416=ORIENTED_EDGE('',*,*,#482,.T.);
#417=ORIENTED_EDGE('',*,*,#624,.T.);
#418=ORIENTED_EDGE('',*,*,#492,.T.);
#419=ORIENTED_EDGE('',*,*,#625,.F.);
#420=ORIENTED_EDGE('',*,*,#483,.T.);
#421=ORIENTED_EDGE('',*,*,#625,.T.);
#422=ORIENTED_EDGE('',*,*,#499,.T.);
#423=ORIENTED_EDGE('',*,*,#626,.F.);
#424=ORIENTED_EDGE('',*,*,#484,.T.);
#425=ORIENTED_EDGE('',*,*,#626,.T.);
#426=ORIENTED_EDGE('',*,*,#498,.T.);
#427=ORIENTED_EDGE('',*,*,#627,.F.);
#428=ORIENTED_EDGE('',*,*,#485,.T.);
#429=ORIENTED_EDGE('',*,*,#627,.T.);
#430=ORIENTED_EDGE('',*,*,#497,.T.);
#431=ORIENTED_EDGE('',*,*,#628,.F.);
#432=ORIENTED_EDGE('',*,*,#486,.T.);
#433=ORIENTED_EDGE('',*,*,#628,.T.);
#434=ORIENTED_EDGE('',*,*,#496,.T.);
#435=ORIENTED_EDGE('',*,*,#629,.F.);
#436=ORIENTED_EDGE('',*,*,#629,.T.);
#437=ORIENTED_EDGE('',*,*,#495,.F.);
#438=ORIENTED_EDGE('',*,*,#630,.F.);
#439=ORIENTED_EDGE('',*,*,#487,.F.);
#440=ORIENTED_EDGE('',*,*,#480,.T.);
#441=ORIENTED_EDGE('',*,*,#630,.T.);
#442=ORIENTED_EDGE('',*,*,#494,.T.);
#443=ORIENTED_EDGE('',*,*,#623,.F.);
#444=ORIENTED_EDGE('',*,*,#631,.F.);
#445=ORIENTED_EDGE('',*,*,#544,.F.);
#446=ORIENTED_EDGE('',*,*,#632,.F.);
#447=ORIENTED_EDGE('',*,*,#597,.F.);
#448=ORIENTED_EDGE('',*,*,#632,.T.);
#449=ORIENTED_EDGE('',*,*,#585,.F.);
#450=ORIENTED_EDGE('',*,*,#633,.F.);
#451=ORIENTED_EDGE('',*,*,#598,.F.);
#452=ORIENTED_EDGE('',*,*,#631,.T.);
#453=ORIENTED_EDGE('',*,*,#596,.F.);
#454=ORIENTED_EDGE('',*,*,#634,.F.);
#455=ORIENTED_EDGE('',*,*,#586,.F.);
#456=ORIENTED_EDGE('',*,*,#633,.T.);
#457=ORIENTED_EDGE('',*,*,#520,.F.);
#458=ORIENTED_EDGE('',*,*,#635,.F.);
#459=ORIENTED_EDGE('',*,*,#599,.F.);
#460=ORIENTED_EDGE('',*,*,#634,.T.);
#461=ORIENTED_EDGE('',*,*,#595,.F.);
#462=ORIENTED_EDGE('',*,*,#636,.F.);
#463=ORIENTED_EDGE('',*,*,#489,.F.);
#464=ORIENTED_EDGE('',*,*,#635,.T.);
#465=ORIENTED_EDGE('',*,*,#591,.F.);
#466=ORIENTED_EDGE('',*,*,#637,.F.);
#467=ORIENTED_EDGE('',*,*,#592,.F.);
#468=ORIENTED_EDGE('',*,*,#636,.T.);
#469=ORIENTED_EDGE('',*,*,#594,.F.);
#470=ORIENTED_EDGE('',*,*,#638,.F.);
#471=ORIENTED_EDGE('',*,*,#587,.F.);
#472=ORIENTED_EDGE('',*,*,#637,.T.);
#473=ORIENTED_EDGE('',*,*,#589,.F.);
#474=ORIENTED_EDGE('',*,*,#638,.T.);
#475=ORIENTED_EDGE('',*,*,#593,.F.);
#476=EDGE_CURVE('',#639,#640,#760,.T.);
#477=EDGE_CURVE('',#639,#641,#761,.T.);
#478=EDGE_CURVE('',#641,#642,#762,.T.);
#479=EDGE_CURVE('',#640,#642,#763,.T.);
#480=EDGE_CURVE('',#643,#644,#59,.T.);
#481=EDGE_CURVE('',#643,#645,#764,.T.);
#482=EDGE_CURVE('',#646,#645,#60,.T.);
#483=EDGE_CURVE('',#647,#646,#765,.T.);
#484=EDGE_CURVE('',#648,#647,#61,.T.);
#485=EDGE_CURVE('',#649,#648,#766,.T.);
#486=EDGE_CURVE('',#650,#649,#62,.T.);
#487=EDGE_CURVE('',#650,#644,#767,.T.);
#488=EDGE_CURVE('',#651,#652,#768,.T.);
#489=EDGE_CURVE('',#651,#653,#769,.F.);
#490=EDGE_CURVE('',#653,#654,#770,.T.);
#491=EDGE_CURVE('',#654,#652,#771,.T.);
#492=EDGE_CURVE('',#655,#656,#63,.T.);
#493=EDGE_CURVE('',#655,#657,#772,.T.);
#494=EDGE_CURVE('',#658,#657,#64,.T.);
#495=EDGE_CURVE('',#658,#659,#773,.T.);
#496=EDGE_CURVE('',#660,#659,#65,.T.);
#497=EDGE_CURVE('',#661,#660,#774,.T.);
#498=EDGE_CURVE('',#662,#661,#66,.T.);
#499=EDGE_CURVE('',#656,#662,#775,.T.);
#500=EDGE_CURVE('',#663,#664,#776,.T.);
#501=EDGE_CURVE('',#664,#665,#67,.F.);
#502=EDGE_CURVE('',#665,#666,#777,.T.);
#503=EDGE_CURVE('',#666,#667,#778,.T.);
#504=EDGE_CURVE('',#668,#667,#779,.T.);
#505=EDGE_CURVE('',#663,#668,#780,.T.);
#506=EDGE_CURVE('',#669,#669,#68,.F.);
#507=EDGE_CURVE('',#670,#670,#69,.F.);
#508=EDGE_CURVE('',#671,#671,#70,.F.);
#509=EDGE_CURVE('',#672,#672,#71,.F.);
#510=EDGE_CURVE('',#673,#665,#781,.F.);
#511=EDGE_CURVE('',#674,#673,#782,.T.);
#512=EDGE_CURVE('',#664,#674,#783,.T.);
#513=EDGE_CURVE('',#675,#663,#72,.T.);
#514=EDGE_CURVE('',#676,#675,#784,.T.);
#515=EDGE_CURVE('',#641,#676,#73,.T.);
#516=EDGE_CURVE('',#677,#639,#74,.T.);
#517=EDGE_CURVE('',#678,#677,#785,.T.);
#518=EDGE_CURVE('',#666,#678,#75,.T.);
#519=EDGE_CURVE('',#679,#680,#786,.T.);
#520=EDGE_CURVE('',#679,#681,#787,.F.);
#521=EDGE_CURVE('',#681,#682,#788,.T.);
#522=EDGE_CURVE('',#682,#680,#789,.T.);
#523=EDGE_CURVE('',#683,#683,#76,.F.);
#524=EDGE_CURVE('',#684,#685,#790,.T.);
#525=EDGE_CURVE('',#686,#684,#77,.T.);
#526=EDGE_CURVE('',#687,#686,#791,.T.);
#527=EDGE_CURVE('',#688,#687,#78,.T.);
#528=EDGE_CURVE('',#689,#688,#792,.T.);
#529=EDGE_CURVE('',#690,#689,#79,.T.);
#530=EDGE_CURVE('',#691,#690,#793,.T.);
#531=EDGE_CURVE('',#685,#691,#80,.T.);
#532=EDGE_CURVE('',#676,#692,#794,.T.);
#533=EDGE_CURVE('',#675,#693,#795,.T.);
#534=EDGE_CURVE('',#692,#693,#796,.T.);
#535=EDGE_CURVE('',#694,#695,#81,.T.);
#536=EDGE_CURVE('',#696,#694,#797,.T.);
#537=EDGE_CURVE('',#697,#696,#82,.T.);
#538=EDGE_CURVE('',#698,#697,#798,.T.);
#539=EDGE_CURVE('',#699,#698,#83,.T.);
#540=EDGE_CURVE('',#700,#699,#799,.T.);
#541=EDGE_CURVE('',#701,#700,#84,.T.);
#542=EDGE_CURVE('',#695,#701,#800,.T.);
#543=EDGE_CURVE('',#702,#703,#801,.T.);
#544=EDGE_CURVE('',#702,#704,#802,.F.);
#545=EDGE_CURVE('',#704,#705,#803,.T.);
#546=EDGE_CURVE('',#705,#703,#804,.T.);
#547=EDGE_CURVE('',#693,#668,#85,.T.);
#548=EDGE_CURVE('',#642,#692,#86,.T.);
#549=EDGE_CURVE('',#677,#706,#805,.T.);
#550=EDGE_CURVE('',#706,#640,#87,.T.);
#551=EDGE_CURVE('',#678,#707,#806,.T.);
#552=EDGE_CURVE('',#707,#706,#807,.T.);
#553=EDGE_CURVE('',#667,#707,#88,.T.);
#554=EDGE_CURVE('',#708,#708,#89,.T.);
#555=EDGE_CURVE('',#709,#709,#90,.T.);
#556=EDGE_CURVE('',#710,#710,#91,.T.);
#557=EDGE_CURVE('',#711,#711,#92,.T.);
#558=EDGE_CURVE('',#712,#712,#93,.T.);
#559=EDGE_CURVE('',#713,#713,#94,.T.);
#560=EDGE_CURVE('',#714,#714,#95,.T.);
#561=EDGE_CURVE('',#715,#715,#96,.T.);
#562=EDGE_CURVE('',#716,#716,#97,.T.);
#563=EDGE_CURVE('',#717,#717,#98,.T.);
#564=EDGE_CURVE('',#718,#718,#99,.T.);
#565=EDGE_CURVE('',#719,#719,#100,.T.);
#566=EDGE_CURVE('',#720,#720,#101,.T.);
#567=EDGE_CURVE('',#721,#721,#102,.T.);
#568=EDGE_CURVE('',#682,#703,#103,.T.);
#569=EDGE_CURVE('',#705,#652,#104,.T.);
#570=EDGE_CURVE('',#654,#722,#105,.T.);
#571=EDGE_CURVE('',#723,#722,#808,.T.);
#572=EDGE_CURVE('',#723,#680,#106,.T.);
#573=EDGE_CURVE('',#724,#724,#107,.T.);
#574=EDGE_CURVE('',#725,#725,#108,.T.);
#575=EDGE_CURVE('',#726,#726,#109,.T.);
#576=EDGE_CURVE('',#727,#727,#110,.T.);
#577=EDGE_CURVE('',#728,#728,#111,.T.);
#578=EDGE_CURVE('',#729,#729,#112,.T.);
#579=EDGE_CURVE('',#730,#730,#113,.T.);
#580=EDGE_CURVE('',#731,#731,#114,.T.);
#581=EDGE_CURVE('',#732,#732,#115,.T.);
#582=EDGE_CURVE('',#733,#733,#116,.T.);
#583=EDGE_CURVE('',#734,#734,#117,.T.);
#584=EDGE_CURVE('',#735,#735,#118,.T.);
#585=EDGE_CURVE('',#681,#702,#119,.F.);
#586=EDGE_CURVE('',#704,#651,#120,.F.);
#587=EDGE_CURVE('',#653,#736,#121,.F.);
#588=EDGE_CURVE('',#736,#722,#809,.T.);
#589=EDGE_CURVE('',#736,#737,#810,.F.);
#590=EDGE_CURVE('',#737,#723,#811,.T.);
#591=EDGE_CURVE('',#737,#679,#122,.F.);
#592=EDGE_CURVE('',#738,#739,#123,.T.);
#593=EDGE_CURVE('',#739,#740,#812,.T.);
#594=EDGE_CURVE('',#740,#741,#124,.T.);
#595=EDGE_CURVE('',#741,#742,#813,.T.);
#596=EDGE_CURVE('',#742,#743,#125,.T.);
#597=EDGE_CURVE('',#743,#744,#814,.T.);
#598=EDGE_CURVE('',#744,#745,#126,.T.);
#599=EDGE_CURVE('',#745,#738,#815,.T.);
#600=EDGE_CURVE('',#746,#746,#127,.T.);
#601=EDGE_CURVE('',#747,#747,#128,.T.);
#602=EDGE_CURVE('',#748,#748,#129,.T.);
#603=EDGE_CURVE('',#749,#749,#130,.T.);
#604=EDGE_CURVE('',#750,#750,#131,.T.);
#605=EDGE_CURVE('',#751,#751,#132,.T.);
#606=EDGE_CURVE('',#752,#752,#133,.T.);
#607=EDGE_CURVE('',#753,#753,#134,.T.);
#608=EDGE_CURVE('',#754,#754,#135,.T.);
#609=EDGE_CURVE('',#755,#755,#136,.T.);
#610=EDGE_CURVE('',#756,#756,#137,.T.);
#611=EDGE_CURVE('',#757,#757,#138,.T.);
#612=EDGE_CURVE('',#758,#758,#139,.T.);
#613=EDGE_CURVE('',#759,#759,#140,.T.);
#614=EDGE_CURVE('',#685,#696,#816,.T.);
#615=EDGE_CURVE('',#684,#694,#817,.T.);
#616=EDGE_CURVE('',#686,#695,#818,.T.);
#617=EDGE_CURVE('',#687,#701,#819,.T.);
#618=EDGE_CURVE('',#688,#700,#820,.T.);
#619=EDGE_CURVE('',#689,#699,#821,.T.);
#620=EDGE_CURVE('',#690,#698,#822,.T.);
#621=EDGE_CURVE('',#691,#697,#823,.T.);
#622=EDGE_CURVE('',#673,#674,#141,.F.);
#623=EDGE_CURVE('',#643,#657,#824,.T.);
#624=EDGE_CURVE('',#645,#655,#825,.T.);
#625=EDGE_CURVE('',#646,#656,#826,.T.);
#626=EDGE_CURVE('',#647,#662,#827,.T.);
#627=EDGE_CURVE('',#648,#661,#828,.T.);
#628=EDGE_CURVE('',#649,#660,#829,.T.);
#629=EDGE_CURVE('',#650,#659,#830,.T.);
#630=EDGE_CURVE('',#644,#658,#831,.T.);
#631=EDGE_CURVE('',#704,#743,#142,.T.);
#632=EDGE_CURVE('',#744,#702,#143,.T.);
#633=EDGE_CURVE('',#745,#681,#144,.T.);
#634=EDGE_CURVE('',#651,#742,#145,.T.);
#635=EDGE_CURVE('',#738,#679,#146,.T.);
#636=EDGE_CURVE('',#653,#741,#147,.T.);
#637=EDGE_CURVE('',#739,#737,#148,.T.);
#638=EDGE_CURVE('',#736,#740,#149,.T.);
#639=VERTEX_POINT('',#1945);
#640=VERTEX_POINT('',#1946);
#641=VERTEX_POINT('',#1948);
#642=VERTEX_POINT('',#1950);
#643=VERTEX_POINT('',#1953);
#644=VERTEX_POINT('',#1954);
#645=VERTEX_POINT('',#1956);
#646=VERTEX_POINT('',#1958);
#647=VERTEX_POINT('',#1960);
#648=VERTEX_POINT('',#1962);
#649=VERTEX_POINT('',#1964);
#650=VERTEX_POINT('',#1966);
#651=VERTEX_POINT('',#1970);
#652=VERTEX_POINT('',#1971);
#653=VERTEX_POINT('',#1973);
#654=VERTEX_POINT('',#1975);
#655=VERTEX_POINT('',#1978);
#656=VERTEX_POINT('',#1979);
#657=VERTEX_POINT('',#1981);
#658=VERTEX_POINT('',#1983);
#659=VERTEX_POINT('',#1985);
#660=VERTEX_POINT('',#1987);
#661=VERTEX_POINT('',#1989);
#662=VERTEX_POINT('',#1991);
#663=VERTEX_POINT('',#1995);
#664=VERTEX_POINT('',#1996);
#665=VERTEX_POINT('',#1998);
#666=VERTEX_POINT('',#2000);
#667=VERTEX_POINT('',#2002);
#668=VERTEX_POINT('',#2004);
#669=VERTEX_POINT('',#2008);
#670=VERTEX_POINT('',#2010);
#671=VERTEX_POINT('',#2012);
#672=VERTEX_POINT('',#2014);
#673=VERTEX_POINT('',#2016);
#674=VERTEX_POINT('',#2018);
#675=VERTEX_POINT('',#2021);
#676=VERTEX_POINT('',#2023);
#677=VERTEX_POINT('',#2026);
#678=VERTEX_POINT('',#2028);
#679=VERTEX_POINT('',#2032);
#680=VERTEX_POINT('',#2033);
#681=VERTEX_POINT('',#2035);
#682=VERTEX_POINT('',#2037);
#683=VERTEX_POINT('',#2040);
#684=VERTEX_POINT('',#2043);
#685=VERTEX_POINT('',#2044);
#686=VERTEX_POINT('',#2046);
#687=VERTEX_POINT('',#2048);
#688=VERTEX_POINT('',#2050);
#689=VERTEX_POINT('',#2052);
#690=VERTEX_POINT('',#2054);
#691=VERTEX_POINT('',#2056);
#692=VERTEX_POINT('',#2059);
#693=VERTEX_POINT('',#2061);
#694=VERTEX_POINT('',#2065);
#695=VERTEX_POINT('',#2066);
#696=VERTEX_POINT('',#2068);
#697=VERTEX_POINT('',#2070);
#698=VERTEX_POINT('',#2072);
#699=VERTEX_POINT('',#2074);
#700=VERTEX_POINT('',#2076);
#701=VERTEX_POINT('',#2078);
#702=VERTEX_POINT('',#2081);
#703=VERTEX_POINT('',#2082);
#704=VERTEX_POINT('',#2084);
#705=VERTEX_POINT('',#2086);
#706=VERTEX_POINT('',#2094);
#707=VERTEX_POINT('',#2098);
#708=VERTEX_POINT('',#2104);
#709=VERTEX_POINT('',#2106);
#710=VERTEX_POINT('',#2108);
#711=VERTEX_POINT('',#2110);
#712=VERTEX_POINT('',#2112);
#713=VERTEX_POINT('',#2114);
#714=VERTEX_POINT('',#2116);
#715=VERTEX_POINT('',#2118);
#716=VERTEX_POINT('',#2120);
#717=VERTEX_POINT('',#2122);
#718=VERTEX_POINT('',#2124);
#719=VERTEX_POINT('',#2126);
#720=VERTEX_POINT('',#2128);
#721=VERTEX_POINT('',#2130);
#722=VERTEX_POINT('',#2134);
#723=VERTEX_POINT('',#2136);
#724=VERTEX_POINT('',#2140);
#725=VERTEX_POINT('',#2142);
#726=VERTEX_POINT('',#2145);
#727=VERTEX_POINT('',#2150);
#728=VERTEX_POINT('',#2152);
#729=VERTEX_POINT('',#2155);
#730=VERTEX_POINT('',#2160);
#731=VERTEX_POINT('',#2162);
#732=VERTEX_POINT('',#2165);
#733=VERTEX_POINT('',#2170);
#734=VERTEX_POINT('',#2172);
#735=VERTEX_POINT('',#2175);
#736=VERTEX_POINT('',#2184);
#737=VERTEX_POINT('',#2188);
#738=VERTEX_POINT('',#2194);
#739=VERTEX_POINT('',#2195);
#740=VERTEX_POINT('',#2197);
#741=VERTEX_POINT('',#2199);
#742=VERTEX_POINT('',#2201);
#743=VERTEX_POINT('',#2203);
#744=VERTEX_POINT('',#2205);
#745=VERTEX_POINT('',#2207);
#746=VERTEX_POINT('',#2211);
#747=VERTEX_POINT('',#2215);
#748=VERTEX_POINT('',#2219);
#749=VERTEX_POINT('',#2223);
#750=VERTEX_POINT('',#2227);
#751=VERTEX_POINT('',#2231);
#752=VERTEX_POINT('',#2235);
#753=VERTEX_POINT('',#2239);
#754=VERTEX_POINT('',#2243);
#755=VERTEX_POINT('',#2247);
#756=VERTEX_POINT('',#2251);
#757=VERTEX_POINT('',#2255);
#758=VERTEX_POINT('',#2259);
#759=VERTEX_POINT('',#2263);
#760=LINE('',#1944,#832);
#761=LINE('',#1947,#833);
#762=LINE('',#1949,#834);
#763=LINE('',#1951,#835);
#764=LINE('',#1955,#836);
#765=LINE('',#1959,#837);
#766=LINE('',#1963,#838);
#767=LINE('',#1967,#839);
#768=LINE('',#1969,#840);
#769=LINE('',#1972,#841);
#770=LINE('',#1974,#842);
#771=LINE('',#1976,#843);
#772=LINE('',#1980,#844);
#773=LINE('',#1984,#845);
#774=LINE('',#1988,#846);
#775=LINE('',#1992,#847);
#776=LINE('',#1994,#848);
#777=LINE('',#1999,#849);
#778=LINE('',#2001,#850);
#779=LINE('',#2003,#851);
#780=LINE('',#2005,#852);
#781=LINE('',#2015,#853);
#782=LINE('',#2017,#854);
#783=LINE('',#2019,#855);
#784=LINE('',#2022,#856);
#785=LINE('',#2027,#857);
#786=LINE('',#2031,#858);
#787=LINE('',#2034,#859);
#788=LINE('',#2036,#860);
#789=LINE('',#2038,#861);
#790=LINE('',#2042,#862);
#791=LINE('',#2047,#863);
#792=LINE('',#2051,#864);
#793=LINE('',#2055,#865);
#794=LINE('',#2058,#866);
#795=LINE('',#2060,#867);
#796=LINE('',#2062,#868);
#797=LINE('',#2067,#869);
#798=LINE('',#2071,#870);
#799=LINE('',#2075,#871);
#800=LINE('',#2079,#872);
#801=LINE('',#2080,#873);
#802=LINE('',#2083,#874);
#803=LINE('',#2085,#875);
#804=LINE('',#2087,#876);
#805=LINE('',#2093,#877);
#806=LINE('',#2097,#878);
#807=LINE('',#2099,#879);
#808=LINE('',#2135,#880);
#809=LINE('',#2185,#881);
#810=LINE('',#2187,#882);
#811=LINE('',#2189,#883);
#812=LINE('',#2196,#884);
#813=LINE('',#2200,#885);
#814=LINE('',#2204,#886);
#815=LINE('',#2208,#887);
#816=LINE('',#2266,#888);
#817=LINE('',#2267,#889);
#818=LINE('',#2269,#890);
#819=LINE('',#2271,#891);
#820=LINE('',#2273,#892);
#821=LINE('',#2275,#893);
#822=LINE('',#2277,#894);
#823=LINE('',#2279,#895);
#824=LINE('',#2285,#896);
#825=LINE('',#2286,#897);
#826=LINE('',#2288,#898);
#827=LINE('',#2290,#899);
#828=LINE('',#2292,#900);
#829=LINE('',#2294,#901);
#830=LINE('',#2296,#902);
#831=LINE('',#2298,#903);
#832=VECTOR('',#1512,1.);
#833=VECTOR('',#1513,1.);
#834=VECTOR('',#1514,1.);
#835=VECTOR('',#1515,1.);
#836=VECTOR('',#1518,1.);
#837=VECTOR('',#1521,1.);
#838=VECTOR('',#1524,1.);
#839=VECTOR('',#1527,1.);
#840=VECTOR('',#1530,1.);
#841=VECTOR('',#1531,1.);
#842=VECTOR('',#1532,1.);
#843=VECTOR('',#1533,1.);
#844=VECTOR('',#1536,1.);
#845=VECTOR('',#1539,1.);
#846=VECTOR('',#1542,1.);
#847=VECTOR('',#1545,1.);
#848=VECTOR('',#1548,1.);
#849=VECTOR('',#1551,1.);
#850=VECTOR('',#1552,1.);
#851=VECTOR('',#1553,1.);
#852=VECTOR('',#1554,1.);
#853=VECTOR('',#1565,1.);
#854=VECTOR('',#1566,1.);
#855=VECTOR('',#1567,1.);
#856=VECTOR('',#1570,1.);
#857=VECTOR('',#1575,1.);
#858=VECTOR('',#1580,1.);
#859=VECTOR('',#1581,1.);
#860=VECTOR('',#1582,1.);
#861=VECTOR('',#1583,1.);
#862=VECTOR('',#1588,1.);
#863=VECTOR('',#1591,1.);
#864=VECTOR('',#1594,1.);
#865=VECTOR('',#1597,1.);
#866=VECTOR('',#1600,1.);
#867=VECTOR('',#1601,1.);
#868=VECTOR('',#1602,1.);
#869=VECTOR('',#1607,1.);
#870=VECTOR('',#1610,1.);
#871=VECTOR('',#1613,1.);
#872=VECTOR('',#1616,1.);
#873=VECTOR('',#1617,1.);
#874=VECTOR('',#1618,1.);
#875=VECTOR('',#1619,1.);
#876=VECTOR('',#1620,1.);
#877=VECTOR('',#1631,1.);
#878=VECTOR('',#1636,1.);
#879=VECTOR('',#1637,1.);
#880=VECTOR('',#1678,1.);
#881=VECTOR('',#1749,1.);
#882=VECTOR('',#1752,1.);
#883=VECTOR('',#1753,1.);
#884=VECTOR('',#1762,1.);
#885=VECTOR('',#1765,1.);
#886=VECTOR('',#1768,1.);
#887=VECTOR('',#1771,1.);
#888=VECTOR('',#1858,1.);
#889=VECTOR('',#1859,1.);
#890=VECTOR('',#1862,1.);
#891=VECTOR('',#1865,1.);
#892=VECTOR('',#1868,1.);
#893=VECTOR('',#1871,1.);
#894=VECTOR('',#1874,1.);
#895=VECTOR('',#1877,1.);
#896=VECTOR('',#1888,1.);
#897=VECTOR('',#1889,1.);
#898=VECTOR('',#1892,1.);
#899=VECTOR('',#1895,1.);
#900=VECTOR('',#1898,1.);
#901=VECTOR('',#1901,1.);
#902=VECTOR('',#1904,1.);
#903=VECTOR('',#1907,1.);
#904=EDGE_LOOP('',(#150,#151,#152,#153));
#905=EDGE_LOOP('',(#154,#155,#156,#157,#158,#159,#160,#161));
#906=EDGE_LOOP('',(#162,#163,#164,#165));
#907=EDGE_LOOP('',(#166,#167,#168,#169,#170,#171,#172,#173));
#908=EDGE_LOOP('',(#174,#175,#176,#177,#178,#179));
#909=EDGE_LOOP('',(#180));
#910=EDGE_LOOP('',(#181));
#911=EDGE_LOOP('',(#182));
#912=EDGE_LOOP('',(#183));
#913=EDGE_LOOP('',(#184,#185,#186,#187,#188,#189,#190,#191,#192,#193,#194,
#195));
#914=EDGE_LOOP('',(#196,#197,#198,#199));
#915=EDGE_LOOP('',(#200));
#916=EDGE_LOOP('',(#201,#202,#203,#204,#205,#206,#207,#208));
#917=EDGE_LOOP('',(#209,#210,#211,#212));
#918=EDGE_LOOP('',(#213,#214,#215,#216,#217,#218,#219,#220));
#919=EDGE_LOOP('',(#221,#222,#223,#224));
#920=EDGE_LOOP('',(#225,#226,#227,#228));
#921=EDGE_LOOP('',(#229,#230,#231,#232));
#922=EDGE_LOOP('',(#233,#234,#235,#236));
#923=EDGE_LOOP('',(#237,#238,#239,#240));
#924=EDGE_LOOP('',(#241,#242,#243,#244));
#925=EDGE_LOOP('',(#245));
#926=EDGE_LOOP('',(#246));
#927=EDGE_LOOP('',(#247));
#928=EDGE_LOOP('',(#248));
#929=EDGE_LOOP('',(#249));
#930=EDGE_LOOP('',(#250));
#931=EDGE_LOOP('',(#251));
#932=EDGE_LOOP('',(#252));
#933=EDGE_LOOP('',(#253));
#934=EDGE_LOOP('',(#254));
#935=EDGE_LOOP('',(#255));
#936=EDGE_LOOP('',(#256));
#937=EDGE_LOOP('',(#257));
#938=EDGE_LOOP('',(#258));
#939=EDGE_LOOP('',(#259,#260,#261,#262,#263,#264,#265,#266));
#940=EDGE_LOOP('',(#267,#268,#269,#270,#271,#272,#273,#274));
#941=EDGE_LOOP('',(#275));
#942=EDGE_LOOP('',(#276));
#943=EDGE_LOOP('',(#277));
#944=EDGE_LOOP('',(#278));
#945=EDGE_LOOP('',(#279));
#946=EDGE_LOOP('',(#280));
#947=EDGE_LOOP('',(#281));
#948=EDGE_LOOP('',(#282));
#949=EDGE_LOOP('',(#283));
#950=EDGE_LOOP('',(#284));
#951=EDGE_LOOP('',(#285));
#952=EDGE_LOOP('',(#286));
#953=EDGE_LOOP('',(#287));
#954=EDGE_LOOP('',(#288));
#955=EDGE_LOOP('',(#289));
#956=EDGE_LOOP('',(#290));
#957=EDGE_LOOP('',(#291));
#958=EDGE_LOOP('',(#292));
#959=EDGE_LOOP('',(#293));
#960=EDGE_LOOP('',(#294));
#961=EDGE_LOOP('',(#295));
#962=EDGE_LOOP('',(#296));
#963=EDGE_LOOP('',(#297));
#964=EDGE_LOOP('',(#298));
#965=EDGE_LOOP('',(#299));
#966=EDGE_LOOP('',(#300));
#967=EDGE_LOOP('',(#301));
#968=EDGE_LOOP('',(#302));
#969=EDGE_LOOP('',(#303,#304,#305,#306));
#970=EDGE_LOOP('',(#307,#308,#309,#310));
#971=EDGE_LOOP('',(#311,#312,#313,#314));
#972=EDGE_LOOP('',(#315,#316,#317,#318));
#973=EDGE_LOOP('',(#319,#320,#321,#322));
#974=EDGE_LOOP('',(#323,#324,#325,#326,#327,#328,#329,#330));
#975=EDGE_LOOP('',(#331));
#976=EDGE_LOOP('',(#332));
#977=EDGE_LOOP('',(#333));
#978=EDGE_LOOP('',(#334));
#979=EDGE_LOOP('',(#335));
#980=EDGE_LOOP('',(#336));
#981=EDGE_LOOP('',(#337));
#982=EDGE_LOOP('',(#338));
#983=EDGE_LOOP('',(#339));
#984=EDGE_LOOP('',(#340));
#985=EDGE_LOOP('',(#341));
#986=EDGE_LOOP('',(#342));
#987=EDGE_LOOP('',(#343));
#988=EDGE_LOOP('',(#344));
#989=EDGE_LOOP('',(#345));
#990=EDGE_LOOP('',(#346));
#991=EDGE_LOOP('',(#347));
#992=EDGE_LOOP('',(#348));
#993=EDGE_LOOP('',(#349));
#994=EDGE_LOOP('',(#350));
#995=EDGE_LOOP('',(#351));
#996=EDGE_LOOP('',(#352));
#997=EDGE_LOOP('',(#353));
#998=EDGE_LOOP('',(#354));
#999=EDGE_LOOP('',(#355));
#1000=EDGE_LOOP('',(#356));
#1001=EDGE_LOOP('',(#357));
#1002=EDGE_LOOP('',(#358));
#1003=EDGE_LOOP('',(#359));
#1004=EDGE_LOOP('',(#360));
#1005=EDGE_LOOP('',(#361));
#1006=EDGE_LOOP('',(#362));
#1007=EDGE_LOOP('',(#363));
#1008=EDGE_LOOP('',(#364));
#1009=EDGE_LOOP('',(#365));
#1010=EDGE_LOOP('',(#366));
#1011=EDGE_LOOP('',(#367));
#1012=EDGE_LOOP('',(#368));
#1013=EDGE_LOOP('',(#369));
#1014=EDGE_LOOP('',(#370));
#1015=EDGE_LOOP('',(#371));
#1016=EDGE_LOOP('',(#372));
#1017=EDGE_LOOP('',(#373,#374,#375,#376));
#1018=EDGE_LOOP('',(#377,#378,#379,#380));
#1019=EDGE_LOOP('',(#381,#382,#383,#384));
#1020=EDGE_LOOP('',(#385,#386,#387,#388));
#1021=EDGE_LOOP('',(#389,#390,#391,#392));
#1022=EDGE_LOOP('',(#393,#394,#395,#396));
#1023=EDGE_LOOP('',(#397,#398,#399,#400));
#1024=EDGE_LOOP('',(#401,#402,#403,#404));
#1025=EDGE_LOOP('',(#405,#406));
#1026=EDGE_LOOP('',(#407));
#1027=EDGE_LOOP('',(#408,#409,#410,#411));
#1028=EDGE_LOOP('',(#412,#413,#414,#415));
#1029=EDGE_LOOP('',(#416,#417,#418,#419));
#1030=EDGE_LOOP('',(#420,#421,#422,#423));
#1031=EDGE_LOOP('',(#424,#425,#426,#427));
#1032=EDGE_LOOP('',(#428,#429,#430,#431));
#1033=EDGE_LOOP('',(#432,#433,#434,#435));
#1034=EDGE_LOOP('',(#436,#437,#438,#439));
#1035=EDGE_LOOP('',(#440,#441,#442,#443));
#1036=EDGE_LOOP('',(#444,#445,#446,#447));
#1037=EDGE_LOOP('',(#448,#449,#450,#451));
#1038=EDGE_LOOP('',(#452,#453,#454,#455));
#1039=EDGE_LOOP('',(#456,#457,#458,#459));
#1040=EDGE_LOOP('',(#460,#461,#462,#463));
#1041=EDGE_LOOP('',(#464,#465,#466,#467));
#1042=EDGE_LOOP('',(#468,#469,#470,#471));
#1043=EDGE_LOOP('',(#472,#473,#474,#475));
#1044=FACE_BOUND('',#904,.T.);
#1045=FACE_BOUND('',#905,.T.);
#1046=FACE_BOUND('',#906,.T.);
#1047=FACE_BOUND('',#907,.T.);
#1048=FACE_BOUND('',#908,.T.);
#1049=FACE_BOUND('',#909,.T.);
#1050=FACE_BOUND('',#910,.T.);
#1051=FACE_BOUND('',#911,.T.);
#1052=FACE_BOUND('',#912,.T.);
#1053=FACE_BOUND('',#913,.T.);
#1054=FACE_BOUND('',#914,.T.);
#1055=FACE_BOUND('',#915,.T.);
#1056=FACE_BOUND('',#916,.T.);
#1057=FACE_BOUND('',#917,.T.);
#1058=FACE_BOUND('',#918,.T.);
#1059=FACE_BOUND('',#919,.T.);
#1060=FACE_BOUND('',#920,.T.);
#1061=FACE_BOUND('',#921,.T.);
#1062=FACE_BOUND('',#922,.T.);
#1063=FACE_BOUND('',#923,.T.);
#1064=FACE_BOUND('',#924,.T.);
#1065=FACE_BOUND('',#925,.T.);
#1066=FACE_BOUND('',#926,.T.);
#1067=FACE_BOUND('',#927,.T.);
#1068=FACE_BOUND('',#928,.T.);
#1069=FACE_BOUND('',#929,.T.);
#1070=FACE_BOUND('',#930,.T.);
#1071=FACE_BOUND('',#931,.T.);
#1072=FACE_BOUND('',#932,.T.);
#1073=FACE_BOUND('',#933,.T.);
#1074=FACE_BOUND('',#934,.T.);
#1075=FACE_BOUND('',#935,.T.);
#1076=FACE_BOUND('',#936,.T.);
#1077=FACE_BOUND('',#937,.T.);
#1078=FACE_BOUND('',#938,.T.);
#1079=FACE_BOUND('',#939,.T.);
#1080=FACE_BOUND('',#940,.T.);
#1081=FACE_BOUND('',#941,.T.);
#1082=FACE_BOUND('',#942,.T.);
#1083=FACE_BOUND('',#943,.T.);
#1084=FACE_BOUND('',#944,.T.);
#1085=FACE_BOUND('',#945,.T.);
#1086=FACE_BOUND('',#946,.T.);
#1087=FACE_BOUND('',#947,.T.);
#1088=FACE_BOUND('',#948,.T.);
#1089=FACE_BOUND('',#949,.T.);
#1090=FACE_BOUND('',#950,.T.);
#1091=FACE_BOUND('',#951,.T.);
#1092=FACE_BOUND('',#952,.T.);
#1093=FACE_BOUND('',#953,.T.);
#1094=FACE_BOUND('',#954,.T.);
#1095=FACE_BOUND('',#955,.T.);
#1096=FACE_BOUND('',#956,.T.);
#1097=FACE_BOUND('',#957,.T.);
#1098=FACE_BOUND('',#958,.T.);
#1099=FACE_BOUND('',#959,.T.);
#1100=FACE_BOUND('',#960,.T.);
#1101=FACE_BOUND('',#961,.T.);
#1102=FACE_BOUND('',#962,.T.);
#1103=FACE_BOUND('',#963,.T.);
#1104=FACE_BOUND('',#964,.T.);
#1105=FACE_BOUND('',#965,.T.);
#1106=FACE_BOUND('',#966,.T.);
#1107=FACE_BOUND('',#967,.T.);
#1108=FACE_BOUND('',#968,.T.);
#1109=FACE_BOUND('',#969,.T.);
#1110=FACE_BOUND('',#970,.T.);
#1111=FACE_BOUND('',#971,.T.);
#1112=FACE_BOUND('',#972,.T.);
#1113=FACE_BOUND('',#973,.T.);
#1114=FACE_BOUND('',#974,.T.);
#1115=FACE_BOUND('',#975,.T.);
#1116=FACE_BOUND('',#976,.T.);
#1117=FACE_BOUND('',#977,.T.);
#1118=FACE_BOUND('',#978,.T.);
#1119=FACE_BOUND('',#979,.T.);
#1120=FACE_BOUND('',#980,.T.);
#1121=FACE_BOUND('',#981,.T.);
#1122=FACE_BOUND('',#982,.T.);
#1123=FACE_BOUND('',#983,.T.);
#1124=FACE_BOUND('',#984,.T.);
#1125=FACE_BOUND('',#985,.T.);
#1126=FACE_BOUND('',#986,.T.);
#1127=FACE_BOUND('',#987,.T.);
#1128=FACE_BOUND('',#988,.T.);
#1129=FACE_BOUND('',#989,.T.);
#1130=FACE_BOUND('',#990,.T.);
#1131=FACE_BOUND('',#991,.T.);
#1132=FACE_BOUND('',#992,.T.);
#1133=FACE_BOUND('',#993,.T.);
#1134=FACE_BOUND('',#994,.T.);
#1135=FACE_BOUND('',#995,.T.);
#1136=FACE_BOUND('',#996,.T.);
#1137=FACE_BOUND('',#997,.T.);
#1138=FACE_BOUND('',#998,.T.);
#1139=FACE_BOUND('',#999,.T.);
#1140=FACE_BOUND('',#1000,.T.);
#1141=FACE_BOUND('',#1001,.T.);
#1142=FACE_BOUND('',#1002,.T.);
#1143=FACE_BOUND('',#1003,.T.);
#1144=FACE_BOUND('',#1004,.T.);
#1145=FACE_BOUND('',#1005,.T.);
#1146=FACE_BOUND('',#1006,.T.);
#1147=FACE_BOUND('',#1007,.T.);
#1148=FACE_BOUND('',#1008,.T.);
#1149=FACE_BOUND('',#1009,.T.);
#1150=FACE_BOUND('',#1010,.T.);
#1151=FACE_BOUND('',#1011,.T.);
#1152=FACE_BOUND('',#1012,.T.);
#1153=FACE_BOUND('',#1013,.T.);
#1154=FACE_BOUND('',#1014,.T.);
#1155=FACE_BOUND('',#1015,.T.);
#1156=FACE_BOUND('',#1016,.T.);
#1157=FACE_BOUND('',#1017,.T.);
#1158=FACE_BOUND('',#1018,.T.);
#1159=FACE_BOUND('',#1019,.T.);
#1160=FACE_BOUND('',#1020,.T.);
#1161=FACE_BOUND('',#1021,.T.);
#1162=FACE_BOUND('',#1022,.T.);
#1163=FACE_BOUND('',#1023,.T.);
#1164=FACE_BOUND('',#1024,.T.);
#1165=FACE_BOUND('',#1025,.T.);
#1166=FACE_BOUND('',#1026,.T.);
#1167=FACE_BOUND('',#1027,.T.);
#1168=FACE_BOUND('',#1028,.T.);
#1169=FACE_BOUND('',#1029,.T.);
#1170=FACE_BOUND('',#1030,.T.);
#1171=FACE_BOUND('',#1031,.T.);
#1172=FACE_BOUND('',#1032,.T.);
#1173=FACE_BOUND('',#1033,.T.);
#1174=FACE_BOUND('',#1034,.T.);
#1175=FACE_BOUND('',#1035,.T.);
#1176=FACE_BOUND('',#1036,.T.);
#1177=FACE_BOUND('',#1037,.T.);
#1178=FACE_BOUND('',#1038,.T.);
#1179=FACE_BOUND('',#1039,.T.);
#1180=FACE_BOUND('',#1040,.T.);
#1181=FACE_BOUND('',#1041,.T.);
#1182=FACE_BOUND('',#1042,.T.);
#1183=FACE_BOUND('',#1043,.T.);
#1184=PLANE('',#1328);
#1185=PLANE('',#1333);
#1186=PLANE('',#1338);
#1187=PLANE('',#1340);
#1188=PLANE('',#1349);
#1189=PLANE('',#1351);
#1190=PLANE('',#1356);
#1191=PLANE('',#1367);
#1192=PLANE('',#1370);
#1193=PLANE('',#1394);
#1194=PLANE('',#1395);
#1195=PLANE('',#1401);
#1196=PLANE('',#1402);
#1197=PLANE('',#1408);
#1198=PLANE('',#1409);
#1199=PLANE('',#1415);
#1200=PLANE('',#1416);
#1201=PLANE('',#1423);
#1202=PLANE('',#1426);
#1203=PLANE('',#1433);
#1204=PLANE('',#1436);
#1205=PLANE('',#1439);
#1206=PLANE('',#1442);
#1207=PLANE('',#1445);
#1208=PLANE('',#1448);
#1209=PLANE('',#1451);
#1210=PLANE('',#1454);
#1211=PLANE('',#1457);
#1212=PLANE('',#1460);
#1213=PLANE('',#1463);
#1214=PLANE('',#1466);
#1215=PLANE('',#1469);
#1216=PLANE('',#1472);
#1217=PLANE('',#1473);
#1218=PLANE('',#1475);
#1219=PLANE('',#1477);
#1220=PLANE('',#1479);
#1221=PLANE('',#1481);
#1222=PLANE('',#1484);
#1223=PLANE('',#1486);
#1224=PLANE('',#1488);
#1225=PLANE('',#1490);
#1226=ADVANCED_FACE('',(#1044,#1045),#1184,.T.);
#1227=ADVANCED_FACE('',(#1046,#1047),#1185,.F.);
#1228=ADVANCED_FACE('',(#1048),#1186,.T.);
#1229=ADVANCED_FACE('',(#1049,#1050,#1051,#1052,#1053),#1187,.F.);
#1230=ADVANCED_FACE('',(#1054,#1055),#1188,.F.);
#1231=ADVANCED_FACE('',(#1056,#1057),#1189,.T.);
#1232=ADVANCED_FACE('',(#1058,#1059),#1190,.F.);
#1233=ADVANCED_FACE('',(#1060),#16,.F.);
#1234=ADVANCED_FACE('',(#1061),#17,.F.);
#1235=ADVANCED_FACE('',(#1062),#18,.F.);
#1236=ADVANCED_FACE('',(#1063),#1191,.T.);
#1237=ADVANCED_FACE('',(#1064),#19,.F.);
#1238=ADVANCED_FACE('',(#1065,#1066,#1067,#1068,#1069,#1070,#1071,#1072,
#1073,#1074,#1075,#1076,#1077,#1078,#1079,#1080),#1192,.F.);
#1239=ADVANCED_FACE('',(#1081,#1082),#20,.F.);
#1240=ADVANCED_FACE('',(#1083,#1084),#21,.T.);
#1241=ADVANCED_FACE('',(#1085,#1086),#1193,.T.);
#1242=ADVANCED_FACE('',(#1087),#1194,.F.);
#1243=ADVANCED_FACE('',(#1088,#1089),#22,.F.);
#1244=ADVANCED_FACE('',(#1090,#1091),#23,.T.);
#1245=ADVANCED_FACE('',(#1092,#1093),#1195,.T.);
#1246=ADVANCED_FACE('',(#1094),#1196,.F.);
#1247=ADVANCED_FACE('',(#1095,#1096),#24,.F.);
#1248=ADVANCED_FACE('',(#1097,#1098),#25,.T.);
#1249=ADVANCED_FACE('',(#1099,#1100),#1197,.T.);
#1250=ADVANCED_FACE('',(#1101),#1198,.F.);
#1251=ADVANCED_FACE('',(#1102,#1103),#26,.F.);
#1252=ADVANCED_FACE('',(#1104,#1105),#27,.T.);
#1253=ADVANCED_FACE('',(#1106,#1107),#1199,.T.);
#1254=ADVANCED_FACE('',(#1108),#1200,.F.);
#1255=ADVANCED_FACE('',(#1109),#28,.T.);
#1256=ADVANCED_FACE('',(#1110),#29,.T.);
#1257=ADVANCED_FACE('',(#1111),#30,.T.);
#1258=ADVANCED_FACE('',(#1112),#1201,.F.);
#1259=ADVANCED_FACE('',(#1113),#31,.T.);
#1260=ADVANCED_FACE('',(#1114),#1202,.T.);
#1261=ADVANCED_FACE('',(#1115,#1116),#32,.F.);
#1262=ADVANCED_FACE('',(#1117),#1203,.T.);
#1263=ADVANCED_FACE('',(#1118,#1119),#33,.F.);
#1264=ADVANCED_FACE('',(#1120),#1204,.T.);
#1265=ADVANCED_FACE('',(#1121,#1122),#34,.F.);
#1266=ADVANCED_FACE('',(#1123),#1205,.T.);
#1267=ADVANCED_FACE('',(#1124,#1125),#35,.F.);
#1268=ADVANCED_FACE('',(#1126),#1206,.T.);
#1269=ADVANCED_FACE('',(#1127,#1128),#36,.F.);
#1270=ADVANCED_FACE('',(#1129),#1207,.T.);
#1271=ADVANCED_FACE('',(#1130,#1131),#37,.F.);
#1272=ADVANCED_FACE('',(#1132),#1208,.T.);
#1273=ADVANCED_FACE('',(#1133,#1134),#38,.F.);
#1274=ADVANCED_FACE('',(#1135),#1209,.T.);
#1275=ADVANCED_FACE('',(#1136,#1137),#39,.F.);
#1276=ADVANCED_FACE('',(#1138),#1210,.T.);
#1277=ADVANCED_FACE('',(#1139,#1140),#40,.F.);
#1278=ADVANCED_FACE('',(#1141),#1211,.T.);
#1279=ADVANCED_FACE('',(#1142,#1143),#41,.F.);
#1280=ADVANCED_FACE('',(#1144),#1212,.T.);
#1281=ADVANCED_FACE('',(#1145,#1146),#42,.F.);
#1282=ADVANCED_FACE('',(#1147),#1213,.T.);
#1283=ADVANCED_FACE('',(#1148,#1149),#43,.F.);
#1284=ADVANCED_FACE('',(#1150),#1214,.T.);
#1285=ADVANCED_FACE('',(#1151,#1152),#44,.F.);
#1286=ADVANCED_FACE('',(#1153),#1215,.T.);
#1287=ADVANCED_FACE('',(#1154,#1155),#45,.F.);
#1288=ADVANCED_FACE('',(#1156),#1216,.T.);
#1289=ADVANCED_FACE('',(#1157),#1217,.F.);
#1290=ADVANCED_FACE('',(#1158),#46,.F.);
#1291=ADVANCED_FACE('',(#1159),#1218,.F.);
#1292=ADVANCED_FACE('',(#1160),#47,.F.);
#1293=ADVANCED_FACE('',(#1161),#1219,.F.);
#1294=ADVANCED_FACE('',(#1162),#48,.F.);
#1295=ADVANCED_FACE('',(#1163),#1220,.F.);
#1296=ADVANCED_FACE('',(#1164),#49,.F.);
#1297=ADVANCED_FACE('',(#1165),#1221,.T.);
#1298=ADVANCED_FACE('',(#1166,#1167),#50,.F.);
#1299=ADVANCED_FACE('',(#1168),#1222,.T.);
#1300=ADVANCED_FACE('',(#1169),#51,.F.);
#1301=ADVANCED_FACE('',(#1170),#1223,.F.);
#1302=ADVANCED_FACE('',(#1171),#52,.F.);
#1303=ADVANCED_FACE('',(#1172),#1224,.F.);
#1304=ADVANCED_FACE('',(#1173),#53,.F.);
#1305=ADVANCED_FACE('',(#1174),#1225,.T.);
#1306=ADVANCED_FACE('',(#1175),#54,.F.);
#1307=ADVANCED_FACE('',(#1176),#55,.T.);
#1308=ADVANCED_FACE('',(#1177),#12,.T.);
#1309=ADVANCED_FACE('',(#1178),#13,.T.);
#1310=ADVANCED_FACE('',(#1179),#56,.T.);
#1311=ADVANCED_FACE('',(#1180),#57,.T.);
#1312=ADVANCED_FACE('',(#1181),#14,.T.);
#1313=ADVANCED_FACE('',(#1182),#15,.T.);
#1314=ADVANCED_FACE('',(#1183),#58,.T.);
#1315=CLOSED_SHELL('',(#1226,#1227,#1228,#1229,#1230,#1231,#1232,#1233,
#1234,#1235,#1236,#1237,#1238,#1239,#1240,#1241,#1242,#1243,#1244,#1245,
#1246,#1247,#1248,#1249,#1250,#1251,#1252,#1253,#1254,#1255,#1256,#1257,
#1258,#1259,#1260,#1261,#1262,#1263,#1264,#1265,#1266,#1267,#1268,#1269,
#1270,#1271,#1272,#1273,#1274,#1275,#1276,#1277,#1278,#1279,#1280,#1281,
#1282,#1283,#1284,#1285,#1286,#1287,#1288,#1289,#1290,#1291,#1292,#1293,
#1294,#1295,#1296,#1297,#1298,#1299,#1300,#1301,#1302,#1303,#1304,#1305,
#1306,#1307,#1308,#1309,#1310,#1311,#1312,#1313,#1314));
#1316=STYLED_ITEM('',(#1317),#1324);
#1317=PRESENTATION_STYLE_ASSIGNMENT((#1318));
#1318=SURFACE_STYLE_USAGE(.BOTH.,#1319);
#1319=SURFACE_SIDE_STYLE('',(#1320));
#1320=SURFACE_STYLE_FILL_AREA(#1321);
#1321=FILL_AREA_STYLE('',(#1322));
#1322=FILL_AREA_STYLE_COLOUR('',#1323);
#1323=COLOUR_RGB('',0.647058823529412,0.647058823529412,0.647058823529412);
#1324=MANIFOLD_SOLID_BREP('bottom case',#1315);
#1325=SHAPE_DEFINITION_REPRESENTATION(#2322,#1326);
#1326=SHAPE_REPRESENTATION('bottom case',(#1327),#2317);
#1327=AXIS2_PLACEMENT_3D('',#1942,#1508,#1509);
#1328=AXIS2_PLACEMENT_3D('',#1943,#1510,#1511);
#1329=AXIS2_PLACEMENT_3D('',#1952,#1516,#1517);
#1330=AXIS2_PLACEMENT_3D('',#1957,#1519,#1520);
#1331=AXIS2_PLACEMENT_3D('',#1961,#1522,#1523);
#1332=AXIS2_PLACEMENT_3D('',#1965,#1525,#1526);
#1333=AXIS2_PLACEMENT_3D('',#1968,#1528,#1529);
#1334=AXIS2_PLACEMENT_3D('',#1977,#1534,#1535);
#1335=AXIS2_PLACEMENT_3D('',#1982,#1537,#1538);
#1336=AXIS2_PLACEMENT_3D('',#1986,#1540,#1541);
#1337=AXIS2_PLACEMENT_3D('',#1990,#1543,#1544);
#1338=AXIS2_PLACEMENT_3D('',#1993,#1546,#1547);
#1339=AXIS2_PLACEMENT_3D('',#1997,#1549,#1550);
#1340=AXIS2_PLACEMENT_3D('',#2006,#1555,#1556);
#1341=AXIS2_PLACEMENT_3D('',#2007,#1557,#1558);
#1342=AXIS2_PLACEMENT_3D('',#2009,#1559,#1560);
#1343=AXIS2_PLACEMENT_3D('',#2011,#1561,#1562);
#1344=AXIS2_PLACEMENT_3D('',#2013,#1563,#1564);
#1345=AXIS2_PLACEMENT_3D('',#2020,#1568,#1569);
#1346=AXIS2_PLACEMENT_3D('',#2024,#1571,#1572);
#1347=AXIS2_PLACEMENT_3D('',#2025,#1573,#1574);
#1348=AXIS2_PLACEMENT_3D('',#2029,#1576,#1577);
#1349=AXIS2_PLACEMENT_3D('',#2030,#1578,#1579);
#1350=AXIS2_PLACEMENT_3D('',#2039,#1584,#1585);
#1351=AXIS2_PLACEMENT_3D('',#2041,#1586,#1587);
#1352=AXIS2_PLACEMENT_3D('',#2045,#1589,#1590);
#1353=AXIS2_PLACEMENT_3D('',#2049,#1592,#1593);
#1354=AXIS2_PLACEMENT_3D('',#2053,#1595,#1596);
#1355=AXIS2_PLACEMENT_3D('',#2057,#1598,#1599);
#1356=AXIS2_PLACEMENT_3D('',#2063,#1603,#1604);
#1357=AXIS2_PLACEMENT_3D('',#2064,#1605,#1606);
#1358=AXIS2_PLACEMENT_3D('',#2069,#1608,#1609);
#1359=AXIS2_PLACEMENT_3D('',#2073,#1611,#1612);
#1360=AXIS2_PLACEMENT_3D('',#2077,#1614,#1615);
#1361=AXIS2_PLACEMENT_3D('',#2088,#1621,#1622);
#1362=AXIS2_PLACEMENT_3D('',#2089,#1623,#1624);
#1363=AXIS2_PLACEMENT_3D('',#2090,#1625,#1626);
#1364=AXIS2_PLACEMENT_3D('',#2091,#1627,#1628);
#1365=AXIS2_PLACEMENT_3D('',#2092,#1629,#1630);
#1366=AXIS2_PLACEMENT_3D('',#2095,#1632,#1633);
#1367=AXIS2_PLACEMENT_3D('',#2096,#1634,#1635);
#1368=AXIS2_PLACEMENT_3D('',#2100,#1638,#1639);
#1369=AXIS2_PLACEMENT_3D('',#2101,#1640,#1641);
#1370=AXIS2_PLACEMENT_3D('',#2102,#1642,#1643);
#1371=AXIS2_PLACEMENT_3D('',#2103,#1644,#1645);
#1372=AXIS2_PLACEMENT_3D('',#2105,#1646,#1647);
#1373=AXIS2_PLACEMENT_3D('',#2107,#1648,#1649);
#1374=AXIS2_PLACEMENT_3D('',#2109,#1650,#1651);
#1375=AXIS2_PLACEMENT_3D('',#2111,#1652,#1653);
#1376=AXIS2_PLACEMENT_3D('',#2113,#1654,#1655);
#1377=AXIS2_PLACEMENT_3D('',#2115,#1656,#1657);
#1378=AXIS2_PLACEMENT_3D('',#2117,#1658,#1659);
#1379=AXIS2_PLACEMENT_3D('',#2119,#1660,#1661);
#1380=AXIS2_PLACEMENT_3D('',#2121,#1662,#1663);
#1381=AXIS2_PLACEMENT_3D('',#2123,#1664,#1665);
#1382=AXIS2_PLACEMENT_3D('',#2125,#1666,#1667);
#1383=AXIS2_PLACEMENT_3D('',#2127,#1668,#1669);
#1384=AXIS2_PLACEMENT_3D('',#2129,#1670,#1671);
#1385=AXIS2_PLACEMENT_3D('',#2131,#1672,#1673);
#1386=AXIS2_PLACEMENT_3D('',#2132,#1674,#1675);
#1387=AXIS2_PLACEMENT_3D('',#2133,#1676,#1677);
#1388=AXIS2_PLACEMENT_3D('',#2137,#1679,#1680);
#1389=AXIS2_PLACEMENT_3D('',#2138,#1681,#1682);
#1390=AXIS2_PLACEMENT_3D('',#2139,#1683,#1684);
#1391=AXIS2_PLACEMENT_3D('',#2141,#1685,#1686);
#1392=AXIS2_PLACEMENT_3D('',#2143,#1687,#1688);
#1393=AXIS2_PLACEMENT_3D('',#2144,#1689,#1690);
#1394=AXIS2_PLACEMENT_3D('',#2146,#1691,#1692);
#1395=AXIS2_PLACEMENT_3D('',#2147,#1693,#1694);
#1396=AXIS2_PLACEMENT_3D('',#2148,#1695,#1696);
#1397=AXIS2_PLACEMENT_3D('',#2149,#1697,#1698);
#1398=AXIS2_PLACEMENT_3D('',#2151,#1699,#1700);
#1399=AXIS2_PLACEMENT_3D('',#2153,#1701,#1702);
#1400=AXIS2_PLACEMENT_3D('',#2154,#1703,#1704);
#1401=AXIS2_PLACEMENT_3D('',#2156,#1705,#1706);
#1402=AXIS2_PLACEMENT_3D('',#2157,#1707,#1708);
#1403=AXIS2_PLACEMENT_3D('',#2158,#1709,#1710);
#1404=AXIS2_PLACEMENT_3D('',#2159,#1711,#1712);
#1405=AXIS2_PLACEMENT_3D('',#2161,#1713,#1714);
#1406=AXIS2_PLACEMENT_3D('',#2163,#1715,#1716);
#1407=AXIS2_PLACEMENT_3D('',#2164,#1717,#1718);
#1408=AXIS2_PLACEMENT_3D('',#2166,#1719,#1720);
#1409=AXIS2_PLACEMENT_3D('',#2167,#1721,#1722);
#1410=AXIS2_PLACEMENT_3D('',#2168,#1723,#1724);
#1411=AXIS2_PLACEMENT_3D('',#2169,#1725,#1726);
#1412=AXIS2_PLACEMENT_3D('',#2171,#1727,#1728);
#1413=AXIS2_PLACEMENT_3D('',#2173,#1729,#1730);
#1414=AXIS2_PLACEMENT_3D('',#2174,#1731,#1732);
#1415=AXIS2_PLACEMENT_3D('',#2176,#1733,#1734);
#1416=AXIS2_PLACEMENT_3D('',#2177,#1735,#1736);
#1417=AXIS2_PLACEMENT_3D('',#2178,#1737,#1738);
#1418=AXIS2_PLACEMENT_3D('',#2179,#1739,#1740);
#1419=AXIS2_PLACEMENT_3D('',#2180,#1741,#1742);
#1420=AXIS2_PLACEMENT_3D('',#2181,#1743,#1744);
#1421=AXIS2_PLACEMENT_3D('',#2182,#1745,#1746);
#1422=AXIS2_PLACEMENT_3D('',#2183,#1747,#1748);
#1423=AXIS2_PLACEMENT_3D('',#2186,#1750,#1751);
#1424=AXIS2_PLACEMENT_3D('',#2190,#1754,#1755);
#1425=AXIS2_PLACEMENT_3D('',#2191,#1756,#1757);
#1426=AXIS2_PLACEMENT_3D('',#2192,#1758,#1759);
#1427=AXIS2_PLACEMENT_3D('',#2193,#1760,#1761);
#1428=AXIS2_PLACEMENT_3D('',#2198,#1763,#1764);
#1429=AXIS2_PLACEMENT_3D('',#2202,#1766,#1767);
#1430=AXIS2_PLACEMENT_3D('',#2206,#1769,#1770);
#1431=AXIS2_PLACEMENT_3D('',#2209,#1772,#1773);
#1432=AXIS2_PLACEMENT_3D('',#2210,#1774,#1775);
#1433=AXIS2_PLACEMENT_3D('',#2212,#1776,#1777);
#1434=AXIS2_PLACEMENT_3D('',#2213,#1778,#1779);
#1435=AXIS2_PLACEMENT_3D('',#2214,#1780,#1781);
#1436=AXIS2_PLACEMENT_3D('',#2216,#1782,#1783);
#1437=AXIS2_PLACEMENT_3D('',#2217,#1784,#1785);
#1438=AXIS2_PLACEMENT_3D('',#2218,#1786,#1787);
#1439=AXIS2_PLACEMENT_3D('',#2220,#1788,#1789);
#1440=AXIS2_PLACEMENT_3D('',#2221,#1790,#1791);
#1441=AXIS2_PLACEMENT_3D('',#2222,#1792,#1793);
#1442=AXIS2_PLACEMENT_3D('',#2224,#1794,#1795);
#1443=AXIS2_PLACEMENT_3D('',#2225,#1796,#1797);
#1444=AXIS2_PLACEMENT_3D('',#2226,#1798,#1799);
#1445=AXIS2_PLACEMENT_3D('',#2228,#1800,#1801);
#1446=AXIS2_PLACEMENT_3D('',#2229,#1802,#1803);
#1447=AXIS2_PLACEMENT_3D('',#2230,#1804,#1805);
#1448=AXIS2_PLACEMENT_3D('',#2232,#1806,#1807);
#1449=AXIS2_PLACEMENT_3D('',#2233,#1808,#1809);
#1450=AXIS2_PLACEMENT_3D('',#2234,#1810,#1811);
#1451=AXIS2_PLACEMENT_3D('',#2236,#1812,#1813);
#1452=AXIS2_PLACEMENT_3D('',#2237,#1814,#1815);
#1453=AXIS2_PLACEMENT_3D('',#2238,#1816,#1817);
#1454=AXIS2_PLACEMENT_3D('',#2240,#1818,#1819);
#1455=AXIS2_PLACEMENT_3D('',#2241,#1820,#1821);
#1456=AXIS2_PLACEMENT_3D('',#2242,#1822,#1823);
#1457=AXIS2_PLACEMENT_3D('',#2244,#1824,#1825);
#1458=AXIS2_PLACEMENT_3D('',#2245,#1826,#1827);
#1459=AXIS2_PLACEMENT_3D('',#2246,#1828,#1829);
#1460=AXIS2_PLACEMENT_3D('',#2248,#1830,#1831);
#1461=AXIS2_PLACEMENT_3D('',#2249,#1832,#1833);
#1462=AXIS2_PLACEMENT_3D('',#2250,#1834,#1835);
#1463=AXIS2_PLACEMENT_3D('',#2252,#1836,#1837);
#1464=AXIS2_PLACEMENT_3D('',#2253,#1838,#1839);
#1465=AXIS2_PLACEMENT_3D('',#2254,#1840,#1841);
#1466=AXIS2_PLACEMENT_3D('',#2256,#1842,#1843);
#1467=AXIS2_PLACEMENT_3D('',#2257,#1844,#1845);
#1468=AXIS2_PLACEMENT_3D('',#2258,#1846,#1847);
#1469=AXIS2_PLACEMENT_3D('',#2260,#1848,#1849);
#1470=AXIS2_PLACEMENT_3D('',#2261,#1850,#1851);
#1471=AXIS2_PLACEMENT_3D('',#2262,#1852,#1853);
#1472=AXIS2_PLACEMENT_3D('',#2264,#1854,#1855);
#1473=AXIS2_PLACEMENT_3D('',#2265,#1856,#1857);
#1474=AXIS2_PLACEMENT_3D('',#2268,#1860,#1861);
#1475=AXIS2_PLACEMENT_3D('',#2270,#1863,#1864);
#1476=AXIS2_PLACEMENT_3D('',#2272,#1866,#1867);
#1477=AXIS2_PLACEMENT_3D('',#2274,#1869,#1870);
#1478=AXIS2_PLACEMENT_3D('',#2276,#1872,#1873);
#1479=AXIS2_PLACEMENT_3D('',#2278,#1875,#1876);
#1480=AXIS2_PLACEMENT_3D('',#2280,#1878,#1879);
#1481=AXIS2_PLACEMENT_3D('',#2281,#1880,#1881);
#1482=AXIS2_PLACEMENT_3D('',#2282,#1882,#1883);
#1483=AXIS2_PLACEMENT_3D('',#2283,#1884,#1885);
#1484=AXIS2_PLACEMENT_3D('',#2284,#1886,#1887);
#1485=AXIS2_PLACEMENT_3D('',#2287,#1890,#1891);
#1486=AXIS2_PLACEMENT_3D('',#2289,#1893,#1894);
#1487=AXIS2_PLACEMENT_3D('',#2291,#1896,#1897);
#1488=AXIS2_PLACEMENT_3D('',#2293,#1899,#1900);
#1489=AXIS2_PLACEMENT_3D('',#2295,#1902,#1903);
#1490=AXIS2_PLACEMENT_3D('',#2297,#1905,#1906);
#1491=AXIS2_PLACEMENT_3D('',#2299,#1908,#1909);
#1492=AXIS2_PLACEMENT_3D('',#2300,#1910,#1911);
#1493=AXIS2_PLACEMENT_3D('',#2301,#1912,#1913);
#1494=AXIS2_PLACEMENT_3D('',#2302,#1914,#1915);
#1495=AXIS2_PLACEMENT_3D('',#2303,#1916,#1917);
#1496=AXIS2_PLACEMENT_3D('',#2304,#1918,#1919);
#1497=AXIS2_PLACEMENT_3D('',#2305,#1920,#1921);
#1498=AXIS2_PLACEMENT_3D('',#2306,#1922,#1923);
#1499=AXIS2_PLACEMENT_3D('',#2307,#1924,#1925);
#1500=AXIS2_PLACEMENT_3D('',#2308,#1926,#1927);
#1501=AXIS2_PLACEMENT_3D('',#2309,#1928,#1929);
#1502=AXIS2_PLACEMENT_3D('',#2310,#1930,#1931);
#1503=AXIS2_PLACEMENT_3D('',#2311,#1932,#1933);
#1504=AXIS2_PLACEMENT_3D('',#2312,#1934,#1935);
#1505=AXIS2_PLACEMENT_3D('',#2313,#1936,#1937);
#1506=AXIS2_PLACEMENT_3D('',#2314,#1938,#1939);
#1507=AXIS2_PLACEMENT_3D('',#2315,#1940,#1941);
#1508=DIRECTION('',(0.,0.,1.));
#1509=DIRECTION('',(1.,0.,0.));
#1510=DIRECTION('',(-1.,0.,0.));
#1511=DIRECTION('',(0.,0.,1.));
#1512=DIRECTION('',(0.,0.,1.));
#1513=DIRECTION('',(0.,-1.,0.));
#1514=DIRECTION('',(0.,0.,1.));
#1515=DIRECTION('',(0.,-1.,0.));
#1516=DIRECTION('',(-1.,0.,0.));
#1517=DIRECTION('',(0.,0.,1.));
#1518=DIRECTION('',(0.,-1.,0.));
#1519=DIRECTION('',(-1.,0.,0.));
#1520=DIRECTION('',(0.,0.,1.));
#1521=DIRECTION('',(0.,0.,1.));
#1522=DIRECTION('',(-1.,0.,0.));
#1523=DIRECTION('',(0.,0.,1.));
#1524=DIRECTION('',(0.,-1.,0.));
#1525=DIRECTION('',(-1.,0.,0.));
#1526=DIRECTION('',(0.,0.,1.));
#1527=DIRECTION('',(0.,0.,1.));
#1528=DIRECTION('',(-1.,0.,0.));
#1529=DIRECTION('',(0.,0.,1.));
#1530=DIRECTION('',(0.,0.,1.));
#1531=DIRECTION('',(0.,-1.,0.));
#1532=DIRECTION('',(0.,0.,1.));
#1533=DIRECTION('',(0.,-1.,0.));
#1534=DIRECTION('',(1.,0.,0.));
#1535=DIRECTION('',(0.,0.,-1.));
#1536=DIRECTION('',(0.,1.,0.));
#1537=DIRECTION('',(1.,0.,0.));
#1538=DIRECTION('',(0.,0.,-1.));
#1539=DIRECTION('',(0.,0.,-1.));
#1540=DIRECTION('',(1.,0.,0.));
#1541=DIRECTION('',(0.,0.,-1.));
#1542=DIRECTION('',(0.,1.,0.));
#1543=DIRECTION('',(1.,0.,0.));
#1544=DIRECTION('',(0.,0.,-1.));
#1545=DIRECTION('',(0.,0.,-1.));
#1546=DIRECTION('',(1.,0.,0.));
#1547=DIRECTION('',(0.,0.,-1.));
#1548=DIRECTION('',(0.,1.,0.));
#1549=DIRECTION('',(1.,0.,0.));
#1550=DIRECTION('',(0.,0.,-1.));
#1551=DIRECTION('',(0.,1.,0.));
#1552=DIRECTION('',(0.,0.,1.));
#1553=DIRECTION('',(0.,1.,0.));
#1554=DIRECTION('',(0.,0.,1.));
#1555=DIRECTION('',(0.,0.,-1.));
#1556=DIRECTION('',(1.,0.,0.));
#1557=DIRECTION('',(0.,0.,-1.));
#1558=DIRECTION('',(-1.,0.,0.));
#1559=DIRECTION('',(0.,0.,-1.));
#1560=DIRECTION('',(-1.,0.,0.));
#1561=DIRECTION('',(0.,0.,-1.));
#1562=DIRECTION('',(-1.,0.,0.));
#1563=DIRECTION('',(0.,0.,-1.));
#1564=DIRECTION('',(-1.,0.,0.));
#1565=DIRECTION('',(1.,1.110223024625E-16,-1.224646799147E-16));
#1566=DIRECTION('',(-1.110223024625E-16,1.,0.));
#1567=DIRECTION('',(1.,1.110223024625E-16,-1.224646799147E-16));
#1568=DIRECTION('',(0.,0.,-1.));
#1569=DIRECTION('',(-1.,0.,0.));
#1570=DIRECTION('',(-1.,0.,0.));
#1571=DIRECTION('',(0.,0.,-1.));
#1572=DIRECTION('',(-1.,0.,0.));
#1573=DIRECTION('',(0.,0.,-1.));
#1574=DIRECTION('',(-1.,0.,0.));
#1575=DIRECTION('',(1.,0.,0.));
#1576=DIRECTION('',(0.,0.,-1.));
#1577=DIRECTION('',(-1.,0.,0.));
#1578=DIRECTION('',(1.,0.,0.));
#1579=DIRECTION('',(0.,0.,-1.));
#1580=DIRECTION('',(0.,0.,1.));
#1581=DIRECTION('',(0.,1.,0.));
#1582=DIRECTION('',(0.,0.,1.));
#1583=DIRECTION('',(0.,1.,0.));
#1584=DIRECTION('',(1.,0.,0.));
#1585=DIRECTION('',(0.,0.,-1.));
#1586=DIRECTION('',(0.,1.,0.));
#1587=DIRECTION('',(0.,0.,1.));
#1588=DIRECTION('',(1.,0.,0.));
#1589=DIRECTION('',(0.,1.,0.));
#1590=DIRECTION('',(0.,0.,1.));
#1591=DIRECTION('',(0.,0.,1.));
#1592=DIRECTION('',(0.,1.,0.));
#1593=DIRECTION('',(0.,0.,1.));
#1594=DIRECTION('',(-1.,0.,0.));
#1595=DIRECTION('',(0.,1.,0.));
#1596=DIRECTION('',(0.,0.,1.));
#1597=DIRECTION('',(0.,0.,-1.));
#1598=DIRECTION('',(0.,1.,0.));
#1599=DIRECTION('',(0.,0.,1.));
#1600=DIRECTION('',(0.,0.,1.));
#1601=DIRECTION('',(0.,0.,1.));
#1602=DIRECTION('',(-1.,0.,0.));
#1603=DIRECTION('',(0.,1.,0.));
#1604=DIRECTION('',(0.,0.,1.));
#1605=DIRECTION('',(0.,-1.,0.));
#1606=DIRECTION('',(0.,0.,-1.));
#1607=DIRECTION('',(-1.,0.,0.));
#1608=DIRECTION('',(0.,-1.,0.));
#1609=DIRECTION('',(0.,0.,-1.));
#1610=DIRECTION('',(0.,0.,1.));
#1611=DIRECTION('',(0.,-1.,0.));
#1612=DIRECTION('',(0.,0.,-1.));
#1613=DIRECTION('',(1.,0.,0.));
#1614=DIRECTION('',(0.,-1.,0.));
#1615=DIRECTION('',(0.,0.,-1.));
#1616=DIRECTION('',(0.,0.,-1.));
#1617=DIRECTION('',(0.,0.,1.));
#1618=DIRECTION('',(-1.,0.,0.));
#1619=DIRECTION('',(0.,0.,1.));
#1620=DIRECTION('',(-1.,0.,0.));
#1621=DIRECTION('',(0.,0.,1.));
#1622=DIRECTION('',(1.,0.,0.));
#1623=DIRECTION('',(0.,0.,-1.));
#1624=DIRECTION('',(-1.,0.,0.));
#1625=DIRECTION('',(0.,0.,1.));
#1626=DIRECTION('',(1.,0.,0.));
#1627=DIRECTION('',(0.,0.,-1.));
#1628=DIRECTION('',(-1.,0.,0.));
#1629=DIRECTION('',(0.,0.,1.));
#1630=DIRECTION('',(1.,0.,0.));
#1631=DIRECTION('',(0.,0.,1.));
#1632=DIRECTION('',(0.,0.,-1.));
#1633=DIRECTION('',(-1.,0.,0.));
#1634=DIRECTION('',(0.,-1.,0.));
#1635=DIRECTION('',(0.,0.,-1.));
#1636=DIRECTION('',(0.,0.,1.));
#1637=DIRECTION('',(1.,0.,0.));
#1638=DIRECTION('',(0.,0.,1.));
#1639=DIRECTION('',(1.,0.,0.));
#1640=DIRECTION('',(0.,0.,-1.));
#1641=DIRECTION('',(-1.,0.,0.));
#1642=DIRECTION('',(0.,0.,-1.));
#1643=DIRECTION('',(1.,0.,0.));
#1644=DIRECTION('',(0.,0.,1.));
#1645=DIRECTION('',(1.,0.,0.));
#1646=DIRECTION('',(0.,0.,1.));
#1647=DIRECTION('',(1.,0.,0.));
#1648=DIRECTION('',(0.,0.,1.));
#1649=DIRECTION('',(1.,0.,0.));
#1650=DIRECTION('',(0.,0.,1.));
#1651=DIRECTION('',(1.,0.,0.));
#1652=DIRECTION('',(0.,0.,1.));
#1653=DIRECTION('',(1.,0.,0.));
#1654=DIRECTION('',(0.,0.,1.));
#1655=DIRECTION('',(1.,0.,0.));
#1656=DIRECTION('',(0.,0.,1.));
#1657=DIRECTION('',(1.,0.,0.));
#1658=DIRECTION('',(0.,0.,1.));
#1659=DIRECTION('',(1.,0.,0.));
#1660=DIRECTION('',(0.,0.,1.));
#1661=DIRECTION('',(1.,0.,0.));
#1662=DIRECTION('',(0.,0.,1.));
#1663=DIRECTION('',(1.,0.,0.));
#1664=DIRECTION('',(0.,0.,1.));
#1665=DIRECTION('',(1.,0.,0.));
#1666=DIRECTION('',(0.,0.,1.));
#1667=DIRECTION('',(1.,0.,0.));
#1668=DIRECTION('',(0.,0.,1.));
#1669=DIRECTION('',(1.,0.,0.));
#1670=DIRECTION('',(0.,0.,1.));
#1671=DIRECTION('',(1.,0.,0.));
#1672=DIRECTION('',(0.,0.,1.));
#1673=DIRECTION('',(1.,0.,0.));
#1674=DIRECTION('',(0.,0.,1.));
#1675=DIRECTION('',(1.,0.,0.));
#1676=DIRECTION('',(0.,0.,1.));
#1677=DIRECTION('',(1.,0.,0.));
#1678=DIRECTION('',(1.,0.,0.));
#1679=DIRECTION('',(0.,0.,1.));
#1680=DIRECTION('',(1.,0.,0.));
#1681=DIRECTION('',(0.,0.,-1.));
#1682=DIRECTION('',(-1.,0.,0.));
#1683=DIRECTION('',(0.,0.,1.));
#1684=DIRECTION('',(1.,0.,0.));
#1685=DIRECTION('',(0.,0.,1.));
#1686=DIRECTION('',(1.,0.,0.));
#1687=DIRECTION('',(0.,0.,-1.));
#1688=DIRECTION('',(-1.,0.,0.));
#1689=DIRECTION('',(0.,0.,1.));
#1690=DIRECTION('',(1.,0.,0.));
#1691=DIRECTION('',(0.,0.,1.));
#1692=DIRECTION('',(1.,0.,0.));
#1693=DIRECTION('',(0.,0.,-1.));
#1694=DIRECTION('',(1.,0.,0.));
#1695=DIRECTION('',(0.,0.,-1.));
#1696=DIRECTION('',(-1.,0.,0.));
#1697=DIRECTION('',(0.,0.,1.));
#1698=DIRECTION('',(1.,0.,0.));
#1699=DIRECTION('',(0.,0.,1.));
#1700=DIRECTION('',(1.,0.,0.));
#1701=DIRECTION('',(0.,0.,-1.));
#1702=DIRECTION('',(-1.,0.,0.));
#1703=DIRECTION('',(0.,0.,1.));
#1704=DIRECTION('',(1.,0.,0.));
#1705=DIRECTION('',(0.,0.,1.));
#1706=DIRECTION('',(1.,0.,0.));
#1707=DIRECTION('',(0.,0.,-1.));
#1708=DIRECTION('',(1.,0.,0.));
#1709=DIRECTION('',(0.,0.,-1.));
#1710=DIRECTION('',(-1.,0.,0.));
#1711=DIRECTION('',(0.,0.,1.));
#1712=DIRECTION('',(1.,0.,0.));
#1713=DIRECTION('',(0.,0.,1.));
#1714=DIRECTION('',(1.,0.,0.));
#1715=DIRECTION('',(0.,0.,-1.));
#1716=DIRECTION('',(-1.,0.,0.));
#1717=DIRECTION('',(0.,0.,1.));
#1718=DIRECTION('',(1.,0.,0.));
#1719=DIRECTION('',(0.,0.,1.));
#1720=DIRECTION('',(1.,0.,0.));
#1721=DIRECTION('',(0.,0.,-1.));
#1722=DIRECTION('',(1.,0.,0.));
#1723=DIRECTION('',(0.,0.,-1.));
#1724=DIRECTION('',(-1.,0.,0.));
#1725=DIRECTION('',(0.,0.,1.));
#1726=DIRECTION('',(1.,0.,0.));
#1727=DIRECTION('',(0.,0.,1.));
#1728=DIRECTION('',(1.,0.,0.));
#1729=DIRECTION('',(0.,0.,-1.));
#1730=DIRECTION('',(-1.,0.,0.));
#1731=DIRECTION('',(0.,0.,1.));
#1732=DIRECTION('',(1.,0.,0.));
#1733=DIRECTION('',(0.,0.,1.));
#1734=DIRECTION('',(1.,0.,0.));
#1735=DIRECTION('',(0.,0.,-1.));
#1736=DIRECTION('',(1.,0.,0.));
#1737=DIRECTION('',(0.,0.,1.));
#1738=DIRECTION('',(1.,0.,0.));
#1739=DIRECTION('',(0.,0.,-1.));
#1740=DIRECTION('',(-1.,0.,0.));
#1741=DIRECTION('',(0.,0.,1.));
#1742=DIRECTION('',(1.,0.,0.));
#1743=DIRECTION('',(0.,0.,-1.));
#1744=DIRECTION('',(-1.,0.,0.));
#1745=DIRECTION('',(0.,0.,1.));
#1746=DIRECTION('',(1.,0.,0.));
#1747=DIRECTION('',(0.,0.,-1.));
#1748=DIRECTION('',(-1.,0.,0.));
#1749=DIRECTION('',(0.,0.,1.));
#1750=DIRECTION('',(0.,-1.,0.));
#1751=DIRECTION('',(0.,0.,-1.));
#1752=DIRECTION('',(1.,0.,0.));
#1753=DIRECTION('',(0.,0.,1.));
#1754=DIRECTION('',(0.,0.,1.));
#1755=DIRECTION('',(1.,0.,0.));
#1756=DIRECTION('',(0.,0.,-1.));
#1757=DIRECTION('',(-1.,0.,0.));
#1758=DIRECTION('',(0.,0.,-1.));
#1759=DIRECTION('',(1.,0.,0.));
#1760=DIRECTION('',(0.,0.,-1.));
#1761=DIRECTION('',(-1.,0.,0.));
#1762=DIRECTION('',(1.,0.,0.));
#1763=DIRECTION('',(0.,0.,-1.));
#1764=DIRECTION('',(-1.,0.,0.));
#1765=DIRECTION('',(0.,-1.,0.));
#1766=DIRECTION('',(0.,0.,-1.));
#1767=DIRECTION('',(-1.,0.,0.));
#1768=DIRECTION('',(-1.,0.,0.));
#1769=DIRECTION('',(0.,0.,-1.));
#1770=DIRECTION('',(-1.,0.,0.));
#1771=DIRECTION('',(0.,1.,0.));
#1772=DIRECTION('',(0.,0.,1.));
#1773=DIRECTION('',(1.,0.,0.));
#1774=DIRECTION('',(0.,0.,1.));
#1775=DIRECTION('',(1.,0.,0.));
#1776=DIRECTION('',(0.,0.,1.));
#1777=DIRECTION('',(1.,0.,0.));
#1778=DIRECTION('',(0.,0.,1.));
#1779=DIRECTION('',(1.,0.,0.));
#1780=DIRECTION('',(0.,0.,1.));
#1781=DIRECTION('',(1.,0.,0.));
#1782=DIRECTION('',(0.,0.,1.));
#1783=DIRECTION('',(1.,0.,0.));
#1784=DIRECTION('',(0.,0.,1.));
#1785=DIRECTION('',(1.,0.,0.));
#1786=DIRECTION('',(0.,0.,1.));
#1787=DIRECTION('',(1.,0.,0.));
#1788=DIRECTION('',(0.,0.,1.));
#1789=DIRECTION('',(1.,0.,0.));
#1790=DIRECTION('',(0.,0.,1.));
#1791=DIRECTION('',(1.,0.,0.));
#1792=DIRECTION('',(0.,0.,1.));
#1793=DIRECTION('',(1.,0.,0.));
#1794=DIRECTION('',(0.,0.,1.));
#1795=DIRECTION('',(1.,0.,0.));
#1796=DIRECTION('',(0.,0.,1.));
#1797=DIRECTION('',(1.,0.,0.));
#1798=DIRECTION('',(0.,0.,1.));
#1799=DIRECTION('',(1.,0.,0.));
#1800=DIRECTION('',(0.,0.,1.));
#1801=DIRECTION('',(1.,0.,0.));
#1802=DIRECTION('',(0.,0.,1.));
#1803=DIRECTION('',(1.,0.,0.));
#1804=DIRECTION('',(0.,0.,1.));
#1805=DIRECTION('',(1.,0.,0.));
#1806=DIRECTION('',(0.,0.,1.));
#1807=DIRECTION('',(1.,0.,0.));
#1808=DIRECTION('',(0.,0.,1.));
#1809=DIRECTION('',(1.,0.,0.));
#1810=DIRECTION('',(0.,0.,1.));
#1811=DIRECTION('',(1.,0.,0.));
#1812=DIRECTION('',(0.,0.,1.));
#1813=DIRECTION('',(1.,0.,0.));
#1814=DIRECTION('',(0.,0.,1.));
#1815=DIRECTION('',(1.,0.,0.));
#1816=DIRECTION('',(0.,0.,1.));
#1817=DIRECTION('',(1.,0.,0.));
#1818=DIRECTION('',(0.,0.,1.));
#1819=DIRECTION('',(1.,0.,0.));
#1820=DIRECTION('',(0.,0.,1.));
#1821=DIRECTION('',(1.,0.,0.));
#1822=DIRECTION('',(0.,0.,1.));
#1823=DIRECTION('',(1.,0.,0.));
#1824=DIRECTION('',(0.,0.,1.));
#1825=DIRECTION('',(1.,0.,0.));
#1826=DIRECTION('',(0.,0.,1.));
#1827=DIRECTION('',(1.,0.,0.));
#1828=DIRECTION('',(0.,0.,1.));
#1829=DIRECTION('',(1.,0.,0.));
#1830=DIRECTION('',(0.,0.,1.));
#1831=DIRECTION('',(1.,0.,0.));
#1832=DIRECTION('',(0.,0.,1.));
#1833=DIRECTION('',(1.,0.,0.));
#1834=DIRECTION('',(0.,0.,1.));
#1835=DIRECTION('',(1.,0.,0.));
#1836=DIRECTION('',(0.,0.,1.));
#1837=DIRECTION('',(1.,0.,0.));
#1838=DIRECTION('',(0.,0.,1.));
#1839=DIRECTION('',(1.,0.,0.));
#1840=DIRECTION('',(0.,0.,1.));
#1841=DIRECTION('',(1.,0.,0.));
#1842=DIRECTION('',(0.,0.,1.));
#1843=DIRECTION('',(1.,0.,0.));
#1844=DIRECTION('',(0.,0.,1.));
#1845=DIRECTION('',(1.,0.,0.));
#1846=DIRECTION('',(0.,0.,1.));
#1847=DIRECTION('',(1.,0.,0.));
#1848=DIRECTION('',(0.,0.,1.));
#1849=DIRECTION('',(1.,0.,0.));
#1850=DIRECTION('',(0.,0.,1.));
#1851=DIRECTION('',(1.,0.,0.));
#1852=DIRECTION('',(0.,0.,1.));
#1853=DIRECTION('',(1.,0.,0.));
#1854=DIRECTION('',(0.,0.,1.));
#1855=DIRECTION('',(1.,0.,0.));
#1856=DIRECTION('',(0.,0.,1.));
#1857=DIRECTION('',(1.,0.,0.));
#1858=DIRECTION('',(0.,-1.,0.));
#1859=DIRECTION('',(0.,-1.,0.));
#1860=DIRECTION('',(0.,-1.,0.));
#1861=DIRECTION('',(0.,0.,-1.));
#1862=DIRECTION('',(0.,-1.,0.));
#1863=DIRECTION('',(-1.,0.,0.));
#1864=DIRECTION('',(0.,0.,1.));
#1865=DIRECTION('',(0.,-1.,0.));
#1866=DIRECTION('',(0.,-1.,0.));
#1867=DIRECTION('',(0.,0.,-1.));
#1868=DIRECTION('',(0.,-1.,0.));
#1869=DIRECTION('',(0.,0.,-1.));
#1870=DIRECTION('',(-1.,0.,0.));
#1871=DIRECTION('',(0.,-1.,0.));
#1872=DIRECTION('',(0.,-1.,0.));
#1873=DIRECTION('',(0.,0.,-1.));
#1874=DIRECTION('',(0.,-1.,0.));
#1875=DIRECTION('',(1.,0.,0.));
#1876=DIRECTION('',(0.,0.,-1.));
#1877=DIRECTION('',(0.,-1.,0.));
#1878=DIRECTION('',(0.,-1.,0.));
#1879=DIRECTION('',(0.,0.,-1.));
#1880=DIRECTION('',(-1.,-1.110223024625E-16,1.224646799147E-16));
#1881=DIRECTION('',(-1.224646799147E-16,-1.359631073447E-32,-1.));
#1882=DIRECTION('',(1.,1.110223024625E-16,-1.224646799147E-16));
#1883=DIRECTION('',(1.224646799147E-16,1.359631073447E-32,1.));
#1884=DIRECTION('',(1.,1.110223024625E-16,-1.224646799147E-16));
#1885=DIRECTION('',(-1.224646799147E-16,0.,-1.));
#1886=DIRECTION('',(0.,0.,-1.));
#1887=DIRECTION('',(-1.,0.,0.));
#1888=DIRECTION('',(1.,0.,0.));
#1889=DIRECTION('',(1.,0.,0.));
#1890=DIRECTION('',(1.,0.,0.));
#1891=DIRECTION('',(0.,0.,-1.));
#1892=DIRECTION('',(1.,0.,0.));
#1893=DIRECTION('',(0.,-1.,0.));
#1894=DIRECTION('',(0.,0.,-1.));
#1895=DIRECTION('',(1.,0.,0.));
#1896=DIRECTION('',(1.,0.,0.));
#1897=DIRECTION('',(0.,0.,-1.));
#1898=DIRECTION('',(1.,0.,0.));
#1899=DIRECTION('',(0.,0.,-1.));
#1900=DIRECTION('',(-1.,0.,0.));
#1901=DIRECTION('',(1.,0.,0.));
#1902=DIRECTION('',(1.,0.,0.));
#1903=DIRECTION('',(0.,0.,-1.));
#1904=DIRECTION('',(1.,0.,0.));
#1905=DIRECTION('',(0.,-1.,0.));
#1906=DIRECTION('',(0.,0.,-1.));
#1907=DIRECTION('',(1.,0.,0.));
#1908=DIRECTION('',(1.,0.,0.));
#1909=DIRECTION('',(0.,0.,-1.));
#1910=DIRECTION('',(1.,0.,0.));
#1911=DIRECTION('',(0.,0.,-1.));
#1912=DIRECTION('',(1.,0.,0.));
#1913=DIRECTION('',(0.,0.,-1.));
#1914=DIRECTION('',(-1.,0.,0.));
#1915=DIRECTION('',(0.,0.,1.));
#1916=DIRECTION('',(0.,0.,-1.));
#1917=DIRECTION('',(-1.,0.,0.));
#1918=DIRECTION('',(0.,1.,0.));
#1919=DIRECTION('',(0.,0.,1.));
#1920=DIRECTION('',(0.,0.,-1.));
#1921=DIRECTION('',(-1.,0.,0.));
#1922=DIRECTION('',(0.,1.,0.));
#1923=DIRECTION('',(0.,0.,1.));
#1924=DIRECTION('',(0.,-1.,0.));
#1925=DIRECTION('',(0.,0.,-1.));
#1926=DIRECTION('',(0.,1.,0.));
#1927=DIRECTION('',(0.,0.,1.));
#1928=DIRECTION('',(0.,1.,0.));
#1929=DIRECTION('',(0.,0.,1.));
#1930=DIRECTION('',(0.,1.,0.));
#1931=DIRECTION('',(0.,0.,1.));
#1932=DIRECTION('',(0.,0.,-1.));
#1933=DIRECTION('',(-1.,0.,0.));
#1934=DIRECTION('',(1.,0.,0.));
#1935=DIRECTION('',(0.,0.,-1.));
#1936=DIRECTION('',(0.,0.,-1.));
#1937=DIRECTION('',(-1.,0.,0.));
#1938=DIRECTION('',(-1.,0.,0.));
#1939=DIRECTION('',(0.,0.,1.));
#1940=DIRECTION('',(-1.,0.,0.));
#1941=DIRECTION('',(0.,0.,1.));
#1942=CARTESIAN_POINT('',(0.,0.,0.));
#1943=CARTESIAN_POINT('',(0.183075,-0.083124999999975,-0.005));
#1944=CARTESIAN_POINT('',(0.183075,-0.03512499850585,-0.005));
#1945=CARTESIAN_POINT('',(0.183075,-0.03512499850585,-0.004));
#1946=CARTESIAN_POINT('',(0.183075,-0.03512499850585,0.002));
#1947=CARTESIAN_POINT('',(0.183075,-0.083124999999975,-0.004));
#1948=CARTESIAN_POINT('',(0.183075,-0.1311250014941,-0.004));
#1949=CARTESIAN_POINT('',(0.183075,-0.1311250014941,-0.005));
#1950=CARTESIAN_POINT('',(0.183075,-0.1311250014941,0.002));
#1951=CARTESIAN_POINT('',(0.183075,-0.083124999999975,0.002));
#1952=CARTESIAN_POINT('',(0.183075,-0.0923812504529953,-0.000285477884567809));
#1953=CARTESIAN_POINT('',(0.183075,-0.0923812504529953,-8.5477884567788E-5));
#1954=CARTESIAN_POINT('',(0.183075,-0.0921812504529953,-0.000285477884567809));
#1955=CARTESIAN_POINT('',(0.183075,-0.083124999999975,-8.54778845678084E-5));
#1956=CARTESIAN_POINT('',(0.183075,-0.107005487787723,-8.54778845678084E-5));
#1957=CARTESIAN_POINT('',(0.183075,-0.107005487787723,-0.000285477884567832));
#1958=CARTESIAN_POINT('',(0.183075,-0.107205487787723,-0.000285477884567809));
#1959=CARTESIAN_POINT('',(0.183075,-0.107205487787723,-0.005));
#1960=CARTESIAN_POINT('',(0.183075,-0.107205487787724,-0.00201185944974422));
#1961=CARTESIAN_POINT('',(0.183075,-0.107005487787723,-0.00201185944974422));
#1962=CARTESIAN_POINT('',(0.183075,-0.107005487787723,-0.00221185944974422));
#1963=CARTESIAN_POINT('',(0.183075,-0.083124999999975,-0.00221185944974422));
#1964=CARTESIAN_POINT('',(0.183075,-0.0923812504529953,-0.00221185944974422));
#1965=CARTESIAN_POINT('',(0.183075,-0.0923812504529953,-0.0020118594497442));
#1966=CARTESIAN_POINT('',(0.183075,-0.0921812504529953,-0.0020118594497442));
#1967=CARTESIAN_POINT('',(0.183075,-0.0921812504529953,-0.005));
#1968=CARTESIAN_POINT('',(0.185475,-0.083124999999975,-0.005));
#1969=CARTESIAN_POINT('',(0.185475,-0.1311250014941,-0.005));
#1970=CARTESIAN_POINT('',(0.185475,-0.1311250014941,-0.0046));
#1971=CARTESIAN_POINT('',(0.185475,-0.1311250014941,0.002));
#1972=CARTESIAN_POINT('',(0.185475,-0.03512499850585,-0.0046));
#1973=CARTESIAN_POINT('',(0.185475,-0.03512499850585,-0.0046));
#1974=CARTESIAN_POINT('',(0.185475,-0.03512499850585,-0.005));
#1975=CARTESIAN_POINT('',(0.185475,-0.03512499850585,0.002));
#1976=CARTESIAN_POINT('',(0.185475,-0.083124999999975,0.002));
#1977=CARTESIAN_POINT('',(0.185475,-0.107005487787723,-0.000285477884567832));
#1978=CARTESIAN_POINT('',(0.185475,-0.107005487787723,-8.54778845678084E-5));
#1979=CARTESIAN_POINT('',(0.185475,-0.107205487787723,-0.000285477884567809));
#1980=CARTESIAN_POINT('',(0.185475,-0.0996933691203594,-8.54778845678084E-5));
#1981=CARTESIAN_POINT('',(0.185475,-0.0923812504529953,-8.54778845677872E-5));
#1982=CARTESIAN_POINT('',(0.185475,-0.0923812504529953,-0.000285477884567809));
#1983=CARTESIAN_POINT('',(0.185475,-0.0921812504529953,-0.000285477884567809));
#1984=CARTESIAN_POINT('',(0.185475,-0.0921812504529953,-0.00114866866715601));
#1985=CARTESIAN_POINT('',(0.185475,-0.0921812504529953,-0.0020118594497442));
#1986=CARTESIAN_POINT('',(0.185475,-0.0923812504529953,-0.0020118594497442));
#1987=CARTESIAN_POINT('',(0.185475,-0.0923812504529953,-0.00221185944974422));
#1988=CARTESIAN_POINT('',(0.185475,-0.0996933691203594,-0.00221185944974422));
#1989=CARTESIAN_POINT('',(0.185475,-0.107005487787723,-0.00221185944974422));
#1990=CARTESIAN_POINT('',(0.185475,-0.107005487787723,-0.00201185944974422));
#1991=CARTESIAN_POINT('',(0.185475,-0.107205487787724,-0.00201185944974422));
#1992=CARTESIAN_POINT('',(0.185475,-0.107205487787723,-0.00114866866715602));
#1993=CARTESIAN_POINT('',(0.114075,-0.083124999999975,-0.005));
#1994=CARTESIAN_POINT('',(0.114075,-0.083124999999975,-0.004));
#1995=CARTESIAN_POINT('',(0.114075,-0.1311250014941,-0.004));
#1996=CARTESIAN_POINT('',(0.114075,-0.100971642664931,-0.004));
#1997=CARTESIAN_POINT('',(0.114075,-0.099525,-0.002085));
#1998=CARTESIAN_POINT('',(0.114075,-0.0980783573350685,-0.004));
#1999=CARTESIAN_POINT('',(0.114075,-0.083124999999975,-0.004));
#2000=CARTESIAN_POINT('',(0.114075,-0.03512499850585,-0.004));
#2001=CARTESIAN_POINT('',(0.114075,-0.03512499850585,-0.005));
#2002=CARTESIAN_POINT('',(0.114075,-0.03512499850585,0.002));
#2003=CARTESIAN_POINT('',(0.114075,-0.083124999999975,0.002));
#2004=CARTESIAN_POINT('',(0.114075,-0.1311250014941,0.002));
#2005=CARTESIAN_POINT('',(0.114075,-0.1311250014941,-0.005));
#2006=CARTESIAN_POINT('',(0.148575,-0.0831249999999873,-0.004));
#2007=CARTESIAN_POINT('',(0.177501979630459,-0.0367000591747245,-0.004));
#2008=CARTESIAN_POINT('',(0.174501979630459,-0.0367000591747245,-0.004));
#2009=CARTESIAN_POINT('',(0.119455188988985,-0.0364971046677086,-0.004));
#2010=CARTESIAN_POINT('',(0.116455188988985,-0.0364971046677086,-0.004));
#2011=CARTESIAN_POINT('',(0.119629985029132,-0.129558448654869,-0.004));
#2012=CARTESIAN_POINT('',(0.116629985029132,-0.129558448654869,-0.004));
#2013=CARTESIAN_POINT('',(0.17746603644119,-0.129550580609458,-0.004));
#2014=CARTESIAN_POINT('',(0.17446603644119,-0.129550580609458,-0.004));
#2015=CARTESIAN_POINT('',(0.04315,-0.0980783573350686,-0.004));
#2016=CARTESIAN_POINT('',(0.11425,-0.0980783573350685,-0.004));
#2017=CARTESIAN_POINT('',(0.11425,-0.0831249999999873,-0.004));
#2018=CARTESIAN_POINT('',(0.11425,-0.100971642664931,-0.004));
#2019=CARTESIAN_POINT('',(0.04315,-0.100971642664931,-0.004));
#2020=CARTESIAN_POINT('',(0.11807499850585,-0.1311250014941,-0.004));
#2021=CARTESIAN_POINT('',(0.11807499850585,-0.135124999999975,-0.004));
#2022=CARTESIAN_POINT('',(0.148575,-0.135124999999975,-0.004));
#2023=CARTESIAN_POINT('',(0.17907500149415,-0.13512499999995,-0.004));
#2024=CARTESIAN_POINT('',(0.17907500149415,-0.1311250014941,-0.004));
#2025=CARTESIAN_POINT('',(0.17907500149415,-0.03512499850585,-0.004));
#2026=CARTESIAN_POINT('',(0.17907500149415,-0.031125,-0.004));
#2027=CARTESIAN_POINT('',(0.148575,-0.031125,-0.004));
#2028=CARTESIAN_POINT('',(0.11807499850585,-0.031125,-0.004));
#2029=CARTESIAN_POINT('',(0.11807499850585,-0.03512499850585,-0.004));
#2030=CARTESIAN_POINT('',(0.111675,-0.083124999999975,-0.005));
#2031=CARTESIAN_POINT('',(0.111675,-0.03512499850585,-0.005));
#2032=CARTESIAN_POINT('',(0.111675,-0.03512499850585,-0.0046));
#2033=CARTESIAN_POINT('',(0.111675,-0.03512499850585,0.002));
#2034=CARTESIAN_POINT('',(0.111675,-0.1311250014941,-0.0046));
#2035=CARTESIAN_POINT('',(0.111675,-0.1311250014941,-0.0046));
#2036=CARTESIAN_POINT('',(0.111675,-0.1311250014941,-0.005));
#2037=CARTESIAN_POINT('',(0.111675,-0.1311250014941,0.002));
#2038=CARTESIAN_POINT('',(0.111675,-0.083124999999975,0.002));
#2039=CARTESIAN_POINT('',(0.111675,-0.099525,-0.002085));
#2040=CARTESIAN_POINT('',(0.111675,-0.099525,-0.004485));
#2041=CARTESIAN_POINT('',(0.148575,-0.135124999999975,-0.005));
#2042=CARTESIAN_POINT('',(0.148575,-0.135124999999975,0.000235));
#2043=CARTESIAN_POINT('',(0.145105,-0.135124999999975,0.000235));
#2044=CARTESIAN_POINT('',(0.152045,-0.135124999999975,0.000235000000000008));
#2045=CARTESIAN_POINT('',(0.145105,-0.135124999999975,-0.001135));
#2046=CARTESIAN_POINT('',(0.143735,-0.135124999999975,-0.001135));
#2047=CARTESIAN_POINT('',(0.143735,-0.135124999999975,-0.005));
#2048=CARTESIAN_POINT('',(0.143735,-0.135124999999975,-0.002335));
#2049=CARTESIAN_POINT('',(0.145105,-0.135124999999975,-0.00233499999999995));
#2050=CARTESIAN_POINT('',(0.145105,-0.135124999999975,-0.003705));
#2051=CARTESIAN_POINT('',(0.148575,-0.135124999999975,-0.003705));
#2052=CARTESIAN_POINT('',(0.152045,-0.135124999999975,-0.003705));
#2053=CARTESIAN_POINT('',(0.152045,-0.135124999999975,-0.002335));
#2054=CARTESIAN_POINT('',(0.153415,-0.135124999999975,-0.002335));
#2055=CARTESIAN_POINT('',(0.153415,-0.135124999999975,-0.005));
#2056=CARTESIAN_POINT('',(0.153415,-0.135124999999975,-0.001135));
#2057=CARTESIAN_POINT('',(0.152045,-0.135124999999975,-0.001135));
#2058=CARTESIAN_POINT('',(0.17907500149415,-0.135124999999975,-0.005));
#2059=CARTESIAN_POINT('',(0.17907500149415,-0.135124999999975,0.002));
#2060=CARTESIAN_POINT('',(0.11807499850585,-0.135124999999975,-0.005));
#2061=CARTESIAN_POINT('',(0.11807499850585,-0.135124999999975,0.002));
#2062=CARTESIAN_POINT('',(0.148575,-0.135124999999975,0.002));
#2063=CARTESIAN_POINT('',(0.148575,-0.137524999999975,-0.005));
#2064=CARTESIAN_POINT('',(0.145105,-0.137524999999975,-0.001135));
#2065=CARTESIAN_POINT('',(0.145105,-0.137524999999975,0.000235));
#2066=CARTESIAN_POINT('',(0.143735,-0.137524999999975,-0.001135));
#2067=CARTESIAN_POINT('',(0.148575,-0.137524999999975,0.000235));
#2068=CARTESIAN_POINT('',(0.152045,-0.137524999999975,0.000235));
#2069=CARTESIAN_POINT('',(0.152045,-0.137524999999975,-0.001135));
#2070=CARTESIAN_POINT('',(0.153415,-0.137524999999975,-0.001135));
#2071=CARTESIAN_POINT('',(0.153415,-0.137524999999975,-0.001735));
#2072=CARTESIAN_POINT('',(0.153415,-0.137524999999975,-0.002335));
#2073=CARTESIAN_POINT('',(0.152045,-0.137524999999975,-0.002335));
#2074=CARTESIAN_POINT('',(0.152045,-0.137524999999975,-0.003705));
#2075=CARTESIAN_POINT('',(0.148575,-0.137524999999975,-0.003705));
#2076=CARTESIAN_POINT('',(0.145105,-0.137524999999975,-0.003705));
#2077=CARTESIAN_POINT('',(0.145105,-0.137524999999975,-0.00233499999999995));
#2078=CARTESIAN_POINT('',(0.143735,-0.137524999999975,-0.002335));
#2079=CARTESIAN_POINT('',(0.143735,-0.137524999999975,-0.001735));
#2080=CARTESIAN_POINT('',(0.11807499850585,-0.137524999999975,-0.005));
#2081=CARTESIAN_POINT('',(0.11807499850585,-0.137524999999975,-0.0046));
#2082=CARTESIAN_POINT('',(0.11807499850585,-0.137524999999975,0.002));
#2083=CARTESIAN_POINT('',(0.17907500149415,-0.137524999999975,-0.0046));
#2084=CARTESIAN_POINT('',(0.17907500149415,-0.13752499999995,-0.0046));
#2085=CARTESIAN_POINT('',(0.17907500149415,-0.13752499999995,-0.005));
#2086=CARTESIAN_POINT('',(0.17907500149415,-0.13752499999995,0.002));
#2087=CARTESIAN_POINT('',(0.148575,-0.137524999999975,0.002));
#2088=CARTESIAN_POINT('',(0.11807499850585,-0.1311250014941,-0.005));
#2089=CARTESIAN_POINT('',(0.11807499850585,-0.1311250014941,0.002));
#2090=CARTESIAN_POINT('',(0.17907500149415,-0.1311250014941,-0.005));
#2091=CARTESIAN_POINT('',(0.17907500149415,-0.1311250014941,0.002));
#2092=CARTESIAN_POINT('',(0.17907500149415,-0.03512499850585,-0.005));
#2093=CARTESIAN_POINT('',(0.17907500149415,-0.031125,-0.005));
#2094=CARTESIAN_POINT('',(0.17907500149415,-0.031125,0.002));
#2095=CARTESIAN_POINT('',(0.17907500149415,-0.03512499850585,0.002));
#2096=CARTESIAN_POINT('',(0.148575,-0.031125,-0.005));
#2097=CARTESIAN_POINT('',(0.11807499850585,-0.031125,-0.005));
#2098=CARTESIAN_POINT('',(0.11807499850585,-0.031125,0.002));
#2099=CARTESIAN_POINT('',(0.148575,-0.031125,0.002));
#2100=CARTESIAN_POINT('',(0.11807499850585,-0.03512499850585,-0.005));
#2101=CARTESIAN_POINT('',(0.11807499850585,-0.03512499850585,0.002));
#2102=CARTESIAN_POINT('',(0.148575,-0.0831249999999873,0.002));
#2103=CARTESIAN_POINT('',(0.177435953140259,-0.029925,0.002));
#2104=CARTESIAN_POINT('',(0.178535953140259,-0.029925,0.002));
#2105=CARTESIAN_POINT('',(0.184277091135178,-0.0356385333114381,0.002));
#2106=CARTESIAN_POINT('',(0.185377091135178,-0.0356385333114381,0.002));
#2107=CARTESIAN_POINT('',(0.184277091135178,-0.0668385333114382,0.002));
#2108=CARTESIAN_POINT('',(0.185377091135178,-0.0668385333114382,0.002));
#2109=CARTESIAN_POINT('',(0.184277091135178,-0.0980385333114382,0.002));
#2110=CARTESIAN_POINT('',(0.185377091135178,-0.0980385333114382,0.002));
#2111=CARTESIAN_POINT('',(0.184277091135178,-0.129238533311438,0.002));
#2112=CARTESIAN_POINT('',(0.185377091135178,-0.129238533311438,0.002));
#2113=CARTESIAN_POINT('',(0.177336116384743,-0.136325001246445,0.002));
#2114=CARTESIAN_POINT('',(0.178436116384743,-0.136325001246445,0.002));
#2115=CARTESIAN_POINT('',(0.148836116384743,-0.136325001246445,0.002));
#2116=CARTESIAN_POINT('',(0.149936116384743,-0.136325001246445,0.002));
#2117=CARTESIAN_POINT('',(0.120336116384743,-0.136325001246445,0.002));
#2118=CARTESIAN_POINT('',(0.121436116384743,-0.136325001246445,0.002));
#2119=CARTESIAN_POINT('',(0.112875,-0.129237324675918,0.002));
#2120=CARTESIAN_POINT('',(0.113975,-0.129237324675918,0.002));
#2121=CARTESIAN_POINT('',(0.112875,-0.0980373246759176,0.002));
#2122=CARTESIAN_POINT('',(0.113975,-0.0980373246759176,0.002));
#2123=CARTESIAN_POINT('',(0.112875,-0.0668373246759176,0.002));
#2124=CARTESIAN_POINT('',(0.113975,-0.0668373246759176,0.002));
#2125=CARTESIAN_POINT('',(0.112875,-0.0356373246759176,0.002));
#2126=CARTESIAN_POINT('',(0.113975,-0.0356373246759176,0.002));
#2127=CARTESIAN_POINT('',(0.120435953140259,-0.029925,0.002));
#2128=CARTESIAN_POINT('',(0.121535953140259,-0.029925,0.002));
#2129=CARTESIAN_POINT('',(0.148935953140259,-0.029925,0.002));
#2130=CARTESIAN_POINT('',(0.150035953140259,-0.029925,0.002));
#2131=CARTESIAN_POINT('',(0.11807499850585,-0.1311250014941,0.002));
#2132=CARTESIAN_POINT('',(0.17907500149415,-0.1311250014941,0.002));
#2133=CARTESIAN_POINT('',(0.17907500149415,-0.03512499850585,0.002));
#2134=CARTESIAN_POINT('',(0.17907500149415,-0.028725,0.002));
#2135=CARTESIAN_POINT('',(0.148575,-0.028725,0.002));
#2136=CARTESIAN_POINT('',(0.11807499850585,-0.028725,0.002));
#2137=CARTESIAN_POINT('',(0.11807499850585,-0.03512499850585,0.002));
#2138=CARTESIAN_POINT('',(0.177501979630459,-0.0367000591747245,-0.00031));
#2139=CARTESIAN_POINT('',(0.177501979630459,-0.0367000591747245,-0.00031));
#2140=CARTESIAN_POINT('',(0.17990197963046,-0.0367000591747245,-0.00031));
#2141=CARTESIAN_POINT('',(0.177501979630459,-0.0367000591747245,-0.004));
#2142=CARTESIAN_POINT('',(0.17990197963046,-0.0367000591747245,-0.004));
#2143=CARTESIAN_POINT('',(0.177501979630459,-0.0367000591747245,-0.00031));
#2144=CARTESIAN_POINT('',(0.177501979630459,-0.0367000591747245,-0.00031));
#2145=CARTESIAN_POINT('',(0.180501979630459,-0.0367000591747245,-0.00031));
#2146=CARTESIAN_POINT('',(0.148575,-0.0831249999999873,-0.00031));
#2147=CARTESIAN_POINT('',(0.148575,-0.0831249999999873,-0.004));
#2148=CARTESIAN_POINT('',(0.119455188988985,-0.0364971046677086,-0.00031));
#2149=CARTESIAN_POINT('',(0.119455188988985,-0.0364971046677086,-0.00031));
#2150=CARTESIAN_POINT('',(0.121855188988985,-0.0364971046677086,-0.00031));
#2151=CARTESIAN_POINT('',(0.119455188988985,-0.0364971046677086,-0.004));
#2152=CARTESIAN_POINT('',(0.121855188988985,-0.0364971046677086,-0.004));
#2153=CARTESIAN_POINT('',(0.119455188988985,-0.0364971046677086,-0.00031));
#2154=CARTESIAN_POINT('',(0.119455188988985,-0.0364971046677086,-0.00031));
#2155=CARTESIAN_POINT('',(0.122455188988985,-0.0364971046677086,-0.00031));
#2156=CARTESIAN_POINT('',(0.148575,-0.0831249999999873,-0.00031));
#2157=CARTESIAN_POINT('',(0.148575,-0.0831249999999873,-0.004));
#2158=CARTESIAN_POINT('',(0.119629985029132,-0.129558448654869,-0.00031));
#2159=CARTESIAN_POINT('',(0.119629985029132,-0.129558448654869,-0.00031));
#2160=CARTESIAN_POINT('',(0.122029985029132,-0.129558448654869,-0.00031));
#2161=CARTESIAN_POINT('',(0.119629985029132,-0.129558448654869,-0.004));
#2162=CARTESIAN_POINT('',(0.122029985029132,-0.129558448654869,-0.004));
#2163=CARTESIAN_POINT('',(0.119629985029132,-0.129558448654869,-0.00031));
#2164=CARTESIAN_POINT('',(0.119629985029132,-0.129558448654869,-0.00031));
#2165=CARTESIAN_POINT('',(0.122629985029132,-0.129558448654869,-0.00031));
#2166=CARTESIAN_POINT('',(0.148575,-0.0831249999999873,-0.00031));
#2167=CARTESIAN_POINT('',(0.148575,-0.0831249999999873,-0.004));
#2168=CARTESIAN_POINT('',(0.17746603644119,-0.129550580609458,-0.00031));
#2169=CARTESIAN_POINT('',(0.17746603644119,-0.129550580609458,-0.00031));
#2170=CARTESIAN_POINT('',(0.179866036441191,-0.129550580609458,-0.00031));
#2171=CARTESIAN_POINT('',(0.17746603644119,-0.129550580609458,-0.004));
#2172=CARTESIAN_POINT('',(0.179866036441191,-0.129550580609458,-0.004));
#2173=CARTESIAN_POINT('',(0.17746603644119,-0.129550580609458,-0.00031));
#2174=CARTESIAN_POINT('',(0.17746603644119,-0.129550580609458,-0.00031));
#2175=CARTESIAN_POINT('',(0.18046603644119,-0.129550580609458,-0.00031));
#2176=CARTESIAN_POINT('',(0.148575,-0.0831249999999873,-0.00031));
#2177=CARTESIAN_POINT('',(0.148575,-0.0831249999999873,-0.004));
#2178=CARTESIAN_POINT('',(0.11807499850585,-0.1311250014941,-0.005));
#2179=CARTESIAN_POINT('',(0.11807499850585,-0.1311250014941,-0.0046));
#2180=CARTESIAN_POINT('',(0.17907500149415,-0.1311250014941,-0.005));
#2181=CARTESIAN_POINT('',(0.17907500149415,-0.1311250014941,-0.0046));
#2182=CARTESIAN_POINT('',(0.17907500149415,-0.03512499850585,-0.005));
#2183=CARTESIAN_POINT('',(0.17907500149415,-0.03512499850585,-0.0046));
#2184=CARTESIAN_POINT('',(0.17907500149415,-0.028725,-0.0046));
#2185=CARTESIAN_POINT('',(0.17907500149415,-0.028725,-0.005));
#2186=CARTESIAN_POINT('',(0.148575,-0.028725,-0.005));
#2187=CARTESIAN_POINT('',(0.11807499850585,-0.028725,-0.0046));
#2188=CARTESIAN_POINT('',(0.11807499850585,-0.028725,-0.0046));
#2189=CARTESIAN_POINT('',(0.11807499850585,-0.028725,-0.005));
#2190=CARTESIAN_POINT('',(0.11807499850585,-0.03512499850585,-0.005));
#2191=CARTESIAN_POINT('',(0.11807499850585,-0.03512499850585,-0.0046));
#2192=CARTESIAN_POINT('',(0.148575,-0.0831249999999873,-0.005));
#2193=CARTESIAN_POINT('',(0.11807499850585,-0.03512499850585,-0.005));
#2194=CARTESIAN_POINT('',(0.112075,-0.03512499850585,-0.005));
#2195=CARTESIAN_POINT('',(0.11807499850585,-0.029125,-0.005));
#2196=CARTESIAN_POINT('',(0.17907500149415,-0.029125,-0.005));
#2197=CARTESIAN_POINT('',(0.17907500149415,-0.029125,-0.005));
#2198=CARTESIAN_POINT('',(0.17907500149415,-0.03512499850585,-0.005));
#2199=CARTESIAN_POINT('',(0.185075,-0.03512499850585,-0.005));
#2200=CARTESIAN_POINT('',(0.185075,-0.1311250014941,-0.005));
#2201=CARTESIAN_POINT('',(0.185075,-0.1311250014941,-0.005));
#2202=CARTESIAN_POINT('',(0.17907500149415,-0.1311250014941,-0.005));
#2203=CARTESIAN_POINT('',(0.17907500149415,-0.137124999999975,-0.005));
#2204=CARTESIAN_POINT('',(0.11807499850585,-0.137124999999975,-0.005));
#2205=CARTESIAN_POINT('',(0.11807499850585,-0.13712499999995,-0.005));
#2206=CARTESIAN_POINT('',(0.11807499850585,-0.1311250014941,-0.005));
#2207=CARTESIAN_POINT('',(0.112075,-0.1311250014941,-0.005));
#2208=CARTESIAN_POINT('',(0.112075,-0.03512499850585,-0.005));
#2209=CARTESIAN_POINT('',(0.148935953140259,-0.029925,0.0003));
#2210=CARTESIAN_POINT('',(0.148935953140259,-0.029925,0.0003));
#2211=CARTESIAN_POINT('',(0.150035953140259,-0.029925,0.0003));
#2212=CARTESIAN_POINT('',(0.160476045567588,-0.0831249999999873,0.0003));
#2213=CARTESIAN_POINT('',(0.120435953140259,-0.029925,0.0003));
#2214=CARTESIAN_POINT('',(0.120435953140259,-0.029925,0.0003));
#2215=CARTESIAN_POINT('',(0.121535953140259,-0.029925,0.0003));
#2216=CARTESIAN_POINT('',(0.160476045567588,-0.0831249999999873,0.0003));
#2217=CARTESIAN_POINT('',(0.112875,-0.0356373246759176,0.0003));
#2218=CARTESIAN_POINT('',(0.112875,-0.0356373246759176,0.0003));
#2219=CARTESIAN_POINT('',(0.113975,-0.0356373246759176,0.0003));
#2220=CARTESIAN_POINT('',(0.160476045567588,-0.0831249999999873,0.0003));
#2221=CARTESIAN_POINT('',(0.112875,-0.0668373246759176,0.0003));
#2222=CARTESIAN_POINT('',(0.112875,-0.0668373246759176,0.0003));
#2223=CARTESIAN_POINT('',(0.113975,-0.0668373246759176,0.0003));
#2224=CARTESIAN_POINT('',(0.160476045567588,-0.0831249999999873,0.0003));
#2225=CARTESIAN_POINT('',(0.112875,-0.0980373246759176,0.0003));
#2226=CARTESIAN_POINT('',(0.112875,-0.0980373246759176,0.0003));
#2227=CARTESIAN_POINT('',(0.113975,-0.0980373246759176,0.0003));
#2228=CARTESIAN_POINT('',(0.160476045567588,-0.0831249999999873,0.0003));
#2229=CARTESIAN_POINT('',(0.112875,-0.129237324675918,0.0003));
#2230=CARTESIAN_POINT('',(0.112875,-0.129237324675918,0.0003));
#2231=CARTESIAN_POINT('',(0.113975,-0.129237324675918,0.0003));
#2232=CARTESIAN_POINT('',(0.160476045567588,-0.0831249999999873,0.0003));
#2233=CARTESIAN_POINT('',(0.120336116384743,-0.136325001246445,0.0003));
#2234=CARTESIAN_POINT('',(0.120336116384743,-0.136325001246445,0.0003));
#2235=CARTESIAN_POINT('',(0.121436116384743,-0.136325001246445,0.0003));
#2236=CARTESIAN_POINT('',(0.160476045567588,-0.0831249999999873,0.0003));
#2237=CARTESIAN_POINT('',(0.148836116384743,-0.136325001246445,0.0003));
#2238=CARTESIAN_POINT('',(0.148836116384743,-0.136325001246445,0.0003));
#2239=CARTESIAN_POINT('',(0.149936116384743,-0.136325001246445,0.0003));
#2240=CARTESIAN_POINT('',(0.160476045567588,-0.0831249999999873,0.0003));
#2241=CARTESIAN_POINT('',(0.177336116384743,-0.136325001246445,0.0003));
#2242=CARTESIAN_POINT('',(0.177336116384743,-0.136325001246445,0.0003));
#2243=CARTESIAN_POINT('',(0.178436116384743,-0.136325001246445,0.0003));
#2244=CARTESIAN_POINT('',(0.160476045567588,-0.0831249999999873,0.0003));
#2245=CARTESIAN_POINT('',(0.184277091135178,-0.129238533311438,0.0003));
#2246=CARTESIAN_POINT('',(0.184277091135178,-0.129238533311438,0.0003));
#2247=CARTESIAN_POINT('',(0.185377091135178,-0.129238533311438,0.0003));
#2248=CARTESIAN_POINT('',(0.160476045567588,-0.0831249999999873,0.0003));
#2249=CARTESIAN_POINT('',(0.184277091135178,-0.0980385333114382,0.0003));
#2250=CARTESIAN_POINT('',(0.184277091135178,-0.0980385333114382,0.0003));
#2251=CARTESIAN_POINT('',(0.185377091135178,-0.0980385333114382,0.0003));
#2252=CARTESIAN_POINT('',(0.160476045567588,-0.0831249999999873,0.0003));
#2253=CARTESIAN_POINT('',(0.184277091135178,-0.0668385333114382,0.0003));
#2254=CARTESIAN_POINT('',(0.184277091135178,-0.0668385333114382,0.0003));
#2255=CARTESIAN_POINT('',(0.185377091135178,-0.0668385333114382,0.0003));
#2256=CARTESIAN_POINT('',(0.160476045567588,-0.0831249999999873,0.0003));
#2257=CARTESIAN_POINT('',(0.184277091135178,-0.0356385333114381,0.0003));
#2258=CARTESIAN_POINT('',(0.184277091135178,-0.0356385333114381,0.0003));
#2259=CARTESIAN_POINT('',(0.185377091135178,-0.0356385333114381,0.0003));
#2260=CARTESIAN_POINT('',(0.160476045567588,-0.0831249999999873,0.0003));
#2261=CARTESIAN_POINT('',(0.177435953140259,-0.029925,0.0003));
#2262=CARTESIAN_POINT('',(0.177435953140259,-0.029925,0.0003));
#2263=CARTESIAN_POINT('',(0.178535953140259,-0.029925,0.0003));
#2264=CARTESIAN_POINT('',(0.160476045567588,-0.0831249999999873,0.0003));
#2265=CARTESIAN_POINT('',(0.148575,-0.112524999999975,0.000235));
#2266=CARTESIAN_POINT('',(0.152045,-0.112524999999975,0.000235));
#2267=CARTESIAN_POINT('',(0.145105,-0.112524999999975,0.000235));
#2268=CARTESIAN_POINT('',(0.145105,-0.112524999999975,-0.001135));
#2269=CARTESIAN_POINT('',(0.143735,-0.112524999999975,-0.001135));
#2270=CARTESIAN_POINT('',(0.143735,-0.112524999999975,-0.001735));
#2271=CARTESIAN_POINT('',(0.143735,-0.112524999999975,-0.002335));
#2272=CARTESIAN_POINT('',(0.145105,-0.112524999999975,-0.00233499999999995));
#2273=CARTESIAN_POINT('',(0.145105,-0.112524999999975,-0.003705));
#2274=CARTESIAN_POINT('',(0.148575,-0.112524999999975,-0.003705));
#2275=CARTESIAN_POINT('',(0.152045,-0.112524999999975,-0.003705));
#2276=CARTESIAN_POINT('',(0.152045,-0.112524999999975,-0.002335));
#2277=CARTESIAN_POINT('',(0.153415,-0.112524999999975,-0.002335));
#2278=CARTESIAN_POINT('',(0.153415,-0.112524999999975,-0.001735));
#2279=CARTESIAN_POINT('',(0.153415,-0.112524999999975,-0.001135));
#2280=CARTESIAN_POINT('',(0.152045,-0.112524999999975,-0.001135));
#2281=CARTESIAN_POINT('',(0.11425,-0.099525,-0.002085));
#2282=CARTESIAN_POINT('',(0.11425,-0.099525,-0.002085));
#2283=CARTESIAN_POINT('',(0.04315,-0.099525,-0.002085));
#2284=CARTESIAN_POINT('',(0.178275,-0.0996933691203594,-8.54778845678084E-5));
#2285=CARTESIAN_POINT('',(0.178275,-0.0923812504529953,-8.54778845677872E-5));
#2286=CARTESIAN_POINT('',(0.178275,-0.107005487787723,-8.54778845678084E-5));
#2287=CARTESIAN_POINT('',(0.178275,-0.107005487787723,-0.000285477884567832));
#2288=CARTESIAN_POINT('',(0.178275,-0.107205487787723,-0.000285477884567809));
#2289=CARTESIAN_POINT('',(0.178275,-0.107205487787723,-0.00114866866715602));
#2290=CARTESIAN_POINT('',(0.178275,-0.107205487787724,-0.00201185944974422));
#2291=CARTESIAN_POINT('',(0.178275,-0.107005487787723,-0.00201185944974422));
#2292=CARTESIAN_POINT('',(0.178275,-0.107005487787723,-0.00221185944974422));
#2293=CARTESIAN_POINT('',(0.178275,-0.0996933691203594,-0.00221185944974422));
#2294=CARTESIAN_POINT('',(0.178275,-0.0923812504529953,-0.00221185944974422));
#2295=CARTESIAN_POINT('',(0.178275,-0.0923812504529953,-0.0020118594497442));
#2296=CARTESIAN_POINT('',(0.178275,-0.0921812504529953,-0.0020118594497442));
#2297=CARTESIAN_POINT('',(0.178275,-0.0921812504529953,-0.00114866866715601));
#2298=CARTESIAN_POINT('',(0.178275,-0.0921812504529953,-0.000285477884567809));
#2299=CARTESIAN_POINT('',(0.178275,-0.0923812504529953,-0.000285477884567809));
#2300=CARTESIAN_POINT('',(0.148575,-0.137124999999975,-0.0046));
#2301=CARTESIAN_POINT('',(0.17907500149415,-0.137124999999975,-0.0046));
#2302=CARTESIAN_POINT('',(0.11807499850585,-0.137124999999975,-0.0046));
#2303=CARTESIAN_POINT('',(0.11807499850585,-0.1311250014941,-0.0046));
#2304=CARTESIAN_POINT('',(0.112075,-0.1311250014941,-0.0046));
#2305=CARTESIAN_POINT('',(0.17907500149415,-0.1311250014941,-0.0046));
#2306=CARTESIAN_POINT('',(0.185075,-0.1311250014941,-0.0046));
#2307=CARTESIAN_POINT('',(0.112075,-0.0831249999999873,-0.0046));
#2308=CARTESIAN_POINT('',(0.112075,-0.03512499850585,-0.0046));
#2309=CARTESIAN_POINT('',(0.185075,-0.0831249999999873,-0.0046));
#2310=CARTESIAN_POINT('',(0.185075,-0.03512499850585,-0.0046));
#2311=CARTESIAN_POINT('',(0.11807499850585,-0.03512499850585,-0.0046));
#2312=CARTESIAN_POINT('',(0.11807499850585,-0.029125,-0.0046));
#2313=CARTESIAN_POINT('',(0.17907500149415,-0.03512499850585,-0.0046));
#2314=CARTESIAN_POINT('',(0.17907500149415,-0.029125,-0.0046));
#2315=CARTESIAN_POINT('',(0.148575,-0.029125,-0.0046));
#2316=MECHANICAL_DESIGN_GEOMETRIC_PRESENTATION_REPRESENTATION('',(#1316),
#2317);
#2317=(
GEOMETRIC_REPRESENTATION_CONTEXT(3)
GLOBAL_UNCERTAINTY_ASSIGNED_CONTEXT((#2318))
GLOBAL_UNIT_ASSIGNED_CONTEXT((#2321,#2320,#2319))
REPRESENTATION_CONTEXT('bottom case','TOP_LEVEL_ASSEMBLY_PART')
);
#2318=UNCERTAINTY_MEASURE_WITH_UNIT(LENGTH_MEASURE(1.E-8),#2321,
'DISTANCE_ACCURACY_VALUE','Maximum Tolerance applied to model');
#2319=(
NAMED_UNIT(*)
SI_UNIT($,.STERADIAN.)
SOLID_ANGLE_UNIT()
);
#2320=(
NAMED_UNIT(*)
PLANE_ANGLE_UNIT()
SI_UNIT($,.RADIAN.)
);
#2321=(
LENGTH_UNIT()
NAMED_UNIT(*)
SI_UNIT($,.METRE.)
);
#2322=PRODUCT_DEFINITION_SHAPE('','',#2323);
#2323=PRODUCT_DEFINITION('','',#2325,#2324);
#2324=PRODUCT_DEFINITION_CONTEXT('',#2331,'design');
#2325=PRODUCT_DEFINITION_FORMATION_WITH_SPECIFIED_SOURCE('','',#2327,
 .NOT_KNOWN.);
#2326=PRODUCT_RELATED_PRODUCT_CATEGORY('','',(#2327));
#2327=PRODUCT('bottom case','bottom case','bottom case',(#2329));
#2328=PRODUCT_CATEGORY('','');
#2329=PRODUCT_CONTEXT('',#2331,'mechanical');
#2330=APPLICATION_PROTOCOL_DEFINITION('international standard',
'ap242_managed_model_based_3d_engineering',2020,#2331);
#2331=APPLICATION_CONTEXT('managed model based 3d engineering');
ENDSEC;
END-ISO-10303-21;
