ISO-10303-21;
HEADER;
/* Generated by software containing ST-Developer
 * from STEP Tools, Inc. (www.steptools.com) 
 */
/* OPTION: using custom renumber hook */

FILE_DESCRIPTION(
/* description */ ('STEP AP242 Edition 2',
'CAx-IF Rec.Pracs.---Representation and Presentation of Product Manufa
cturing Information (PMI)---4.0---2014-10-13',
'CAx-IF Rec.Pracs.---3D Tessellated Geometry---0.4---2014-09-14','2;1',
'CAx-IF Rec.Pracs.---User Defined Attributes---1.5---2016-08-15'),
/* implementation_level */ '2;1');

FILE_NAME(
/* name */ 'case new - wheel',
/* time_stamp */ '2026-08-29T02:00:40Z',
/* author */ (''),
/* organization */ (''),
/* preprocessor_version */ 'ST-DEVELOPER v20',
/* originating_system */ 'ONSHAPE BY PTC INC, 1.220',
/* authorisation */ '  ');

FILE_SCHEMA (('AP242_MANAGED_MODEL_BASED_3D_ENGINEERING_MIM_LF { 1 0 10303 442 3 1 4 }'));
ENDSEC;

DATA;
#10=SHAPE_REPRESENTATION_RELATIONSHIP('','',#135,#11);
#11=ADVANCED_BREP_SHAPE_REPRESENTATION('',(#133),#440);
#12=B_SPLINE_CURVE_WITH_KNOTS('',3,(#308,#309,#310,#311,#312,#313,#314,
#315,#316,#317,#318,#319,#320,#321,#322,#323,#324,#325,#326,#327,#328,#329,
#330,#331,#332,#333,#334,#335,#336,#337,#338,#339,#340,#341,#342,#343,#344,
#345,#346,#347,#348,#349,#350,#351,#352,#353,#354,#355,#356,#357,#358),
 .UNSPECIFIED.,.T.,.F.,(1,1,1,1,1,1,1,1,1,1,1,1,1,1,1,1,1,1,1,1,1,1,1,1,
1,1,1,1,1,1,1,1,1,1,1,1,1,1,1,1,1,1,1,1,1,1,1,1,1,1,1,1,1,1,1),(-0.0657894736842105,
-0.049342105263158,-0.0328947368421053,0.,0.01484375,0.0296875,0.059375,
0.0749609375,0.090546875,0.12171875,0.137341796875,0.15296484375,0.1842109375,
0.19983583984375,0.2154607421875,0.246710546875,0.262335541992187,0.277960537109375,
0.30921052734375,0.324835527099609,0.340460526855469,0.371710526367187,
0.38733552635498,0.402960526342773,0.434210526318359,0.449835526317749,
0.465460526317139,0.496710526315918,0.512335526315887,0.527960526315857,
0.559210526315796,0.574835526315794,0.590460526315793,0.62171052631579,
0.63733552631579,0.65296052631579,0.684210526315789,0.699835526315789,0.715460526315789,
0.746710526315789,0.762335526315789,0.777960526315789,0.809210526315789,
0.824835526315789,0.840460526315789,0.871710526315789,0.887335526315789,
0.902960526315789,0.934210526315789,0.950657894736842,0.967105263157895,
1.,1.01484375,1.0296875,1.059375),.UNSPECIFIED.);
#13=B_SPLINE_CURVE_WITH_KNOTS('',3,(#360,#361,#362,#363,#364,#365,#366,
#367,#368,#369,#370,#371,#372,#373,#374,#375,#376,#377,#378,#379,#380,#381,
#382,#383,#384,#385,#386,#387,#388,#389,#390,#391,#392,#393,#394,#395,#396,
#397,#398,#399,#400,#401,#402,#403,#404,#405,#406,#407,#408,#409,#410,#411,
#412,#413,#414,#415,#416,#417,#418,#419,#420,#421,#422,#423),
 .UNSPECIFIED.,.T.,.F.,(1,1,1,1,1,1,1,1,1,1,1,1,1,1,1,1,1,1,1,1,1,1,1,1,
1,1,1,1,1,1,1,1,1,1,1,1,1,1,1,1,1,1,1,1,1,1,1,1,1,1,1,1,1,1,1,1,1,1,1,1,
1,1,1,1,1,1,1,1),(-0.049342105263158,-0.0328947368421053,-0.0164473684210527,
0.,0.0296875,0.059375,0.090546875,0.1061328125,0.12171875,0.137341796875,
0.15296484375,0.168587890625,0.1842109375,0.19983583984375,0.2154607421875,
0.23108564453125,0.246710546875,0.262335541992187,0.277960537109375,0.293585532226562,
0.30921052734375,0.324835527099609,0.340460526855469,0.356085526611328,
0.371710526367187,0.38733552635498,0.402960526342773,0.418585526330566,
0.434210526318359,0.449835526317749,0.465460526317139,0.481085526316528,
0.496710526315918,0.512335526315887,0.527960526315857,0.543585526315826,
0.559210526315796,0.574835526315794,0.590460526315793,0.606085526315791,
0.62171052631579,0.63733552631579,0.65296052631579,0.66858552631579,0.684210526315789,
0.699835526315789,0.715460526315789,0.731085526315789,0.746710526315789,
0.762335526315789,0.777960526315789,0.793585526315789,0.809210526315789,
0.824835526315789,0.840460526315789,0.856085526315789,0.871710526315789,
0.887335526315789,0.902960526315789,0.918585526315789,0.934210526315789,
0.950657894736842,0.967105263157895,0.983552631578947,1.,1.0296875,1.059375,
1.090546875),.UNSPECIFIED.);
#14=B_SPLINE_SURFACE_WITH_KNOTS('',3,1,((#206,#207),(#208,#209),(#210,#211),
(#212,#213),(#214,#215),(#216,#217),(#218,#219),(#220,#221),(#222,#223),
(#224,#225),(#226,#227),(#228,#229),(#230,#231),(#232,#233),(#234,#235),
(#236,#237),(#238,#239),(#240,#241),(#242,#243),(#244,#245),(#246,#247),
(#248,#249),(#250,#251),(#252,#253),(#254,#255),(#256,#257),(#258,#259),
(#260,#261),(#262,#263),(#264,#265),(#266,#267),(#268,#269),(#270,#271),
(#272,#273),(#274,#275),(#276,#277),(#278,#279),(#280,#281),(#282,#283),
(#284,#285),(#286,#287),(#288,#289),(#290,#291),(#292,#293),(#294,#295),
(#296,#297),(#298,#299),(#300,#301),(#302,#303),(#304,#305),(#306,#307)),
 .SURF_OF_LINEAR_EXTRUSION.,.T.,.F.,.F.,(1,1,1,1,1,1,1,1,1,1,1,1,1,1,1,
1,1,1,1,1,1,1,1,1,1,1,1,1,1,1,1,1,1,1,1,1,1,1,1,1,1,1,1,1,1,1,1,1,1,1,1,
1,1,1,1),(2,2),(-0.0625126260687003,-0.0415170185996912,-0.0208004367731029,
0.,0.0209932957522109,0.0417101503776472,0.0625134677520165,0.0835023141119065,
0.104212818449919,0.125007347026622,0.14598481890567,0.166691005393469,
0.187488210869543,0.208481943322638,0.229198265407382,0.249999991805976,
0.270991992282856,0.291708846908291,0.312513530060185,0.333501157209539,
0.354211401748337,0.375006582886765,0.395984059893506,0.416690218948722,
0.437487414496276,0.458481674166665,0.479198255993529,0.499999971522997,
0.520991971999607,0.541708826625142,0.562513509777492,0.583501136926791,
0.604211381465546,0.625006562603977,0.645984039611505,0.666690198666792,
0.687487394213698,0.708481653883524,0.729198235710306,0.74999995124013,
0.770991951716705,0.791708806342181,0.812513489494488,0.833501116644472,
0.854211361183388,0.875006542321458,0.895984019329694,0.916690178385016,
0.9374873739313,0.958482981400309,0.979199563226897,1.,1.02099329575221,
1.04171015037765,1.06251346775202),(0.,1.),.UNSPECIFIED.);
#15=PLANE('',#143);
#16=PLANE('',#144);
#17=PLANE('',#145);
#18=PLANE('',#146);
#19=PLANE('',#153);
#20=PLANE('',#154);
#21=ORIENTED_EDGE('',*,*,#41,.T.);
#22=ORIENTED_EDGE('',*,*,#42,.F.);
#23=ORIENTED_EDGE('',*,*,#43,.F.);
#24=ORIENTED_EDGE('',*,*,#44,.T.);
#25=ORIENTED_EDGE('',*,*,#43,.T.);
#26=ORIENTED_EDGE('',*,*,#41,.F.);
#27=ORIENTED_EDGE('',*,*,#44,.F.);
#28=ORIENTED_EDGE('',*,*,#45,.T.);
#29=ORIENTED_EDGE('',*,*,#46,.F.);
#30=ORIENTED_EDGE('',*,*,#45,.F.);
#31=ORIENTED_EDGE('',*,*,#42,.T.);
#32=ORIENTED_EDGE('',*,*,#47,.F.);
#33=ORIENTED_EDGE('',*,*,#46,.T.);
#34=ORIENTED_EDGE('',*,*,#48,.T.);
#35=ORIENTED_EDGE('',*,*,#49,.F.);
#36=ORIENTED_EDGE('',*,*,#50,.F.);
#37=ORIENTED_EDGE('',*,*,#47,.T.);
#38=ORIENTED_EDGE('',*,*,#48,.F.);
#39=ORIENTED_EDGE('',*,*,#50,.T.);
#40=ORIENTED_EDGE('',*,*,#49,.T.);
#41=EDGE_CURVE('',#51,#51,#61,.T.);
#42=EDGE_CURVE('',#52,#52,#62,.T.);
#43=EDGE_CURVE('',#53,#53,#63,.T.);
#44=EDGE_CURVE('',#54,#54,#64,.T.);
#45=EDGE_CURVE('',#55,#55,#12,.T.);
#46=EDGE_CURVE('',#56,#56,#13,.F.);
#47=EDGE_CURVE('',#57,#57,#65,.T.);
#48=EDGE_CURVE('',#58,#58,#66,.T.);
#49=EDGE_CURVE('',#59,#59,#67,.T.);
#50=EDGE_CURVE('',#60,#60,#68,.T.);
#51=VERTEX_POINT('',#196);
#52=VERTEX_POINT('',#198);
#53=VERTEX_POINT('',#201);
#54=VERTEX_POINT('',#203);
#55=VERTEX_POINT('',#359);
#56=VERTEX_POINT('',#424);
#57=VERTEX_POINT('',#428);
#58=VERTEX_POINT('',#431);
#59=VERTEX_POINT('',#433);
#60=VERTEX_POINT('',#436);
#61=CIRCLE('',#138,0.022);
#62=CIRCLE('',#139,0.022);
#63=CIRCLE('',#141,0.0175);
#64=CIRCLE('',#142,0.0175);
#65=CIRCLE('',#147,0.00725);
#66=CIRCLE('',#149,0.007);
#67=CIRCLE('',#150,0.007);
#68=CIRCLE('',#152,0.00725);
#69=EDGE_LOOP('',(#21));
#70=EDGE_LOOP('',(#22));
#71=EDGE_LOOP('',(#23));
#72=EDGE_LOOP('',(#24));
#73=EDGE_LOOP('',(#25));
#74=EDGE_LOOP('',(#26));
#75=EDGE_LOOP('',(#27));
#76=EDGE_LOOP('',(#28));
#77=EDGE_LOOP('',(#29));
#78=EDGE_LOOP('',(#30));
#79=EDGE_LOOP('',(#31));
#80=EDGE_LOOP('',(#32));
#81=EDGE_LOOP('',(#33));
#82=EDGE_LOOP('',(#34));
#83=EDGE_LOOP('',(#35));
#84=EDGE_LOOP('',(#36));
#85=EDGE_LOOP('',(#37));
#86=EDGE_LOOP('',(#38));
#87=EDGE_LOOP('',(#39));
#88=EDGE_LOOP('',(#40));
#89=FACE_BOUND('',#69,.T.);
#90=FACE_BOUND('',#70,.T.);
#91=FACE_BOUND('',#71,.T.);
#92=FACE_BOUND('',#72,.T.);
#93=FACE_BOUND('',#73,.T.);
#94=FACE_BOUND('',#74,.T.);
#95=FACE_BOUND('',#75,.T.);
#96=FACE_BOUND('',#76,.T.);
#97=FACE_BOUND('',#77,.T.);
#98=FACE_BOUND('',#78,.T.);
#99=FACE_BOUND('',#79,.T.);
#100=FACE_BOUND('',#80,.T.);
#101=FACE_BOUND('',#81,.T.);
#102=FACE_BOUND('',#82,.T.);
#103=FACE_BOUND('',#83,.T.);
#104=FACE_BOUND('',#84,.T.);
#105=FACE_BOUND('',#85,.T.);
#106=FACE_BOUND('',#86,.T.);
#107=FACE_BOUND('',#87,.T.);
#108=FACE_BOUND('',#88,.T.);
#109=CYLINDRICAL_SURFACE('',#137,0.022);
#110=CYLINDRICAL_SURFACE('',#140,0.0175);
#111=CYLINDRICAL_SURFACE('',#148,0.007);
#112=CYLINDRICAL_SURFACE('',#151,0.00725);
#113=ADVANCED_FACE('',(#89,#90),#109,.T.);
#114=ADVANCED_FACE('',(#91,#92),#110,.F.);
#115=ADVANCED_FACE('',(#93,#94),#15,.F.);
#116=ADVANCED_FACE('',(#95),#16,.F.);
#117=ADVANCED_FACE('',(#96,#97),#14,.T.);
#118=ADVANCED_FACE('',(#98,#99),#17,.T.);
#119=ADVANCED_FACE('',(#100,#101),#18,.T.);
#120=ADVANCED_FACE('',(#102,#103),#111,.T.);
#121=ADVANCED_FACE('',(#104,#105),#112,.F.);
#122=ADVANCED_FACE('',(#106,#107),#19,.T.);
#123=ADVANCED_FACE('',(#108),#20,.T.);
#124=CLOSED_SHELL('',(#113,#114,#115,#116,#117,#118,#119,#120,#121,#122,
#123));
#125=STYLED_ITEM('',(#126),#133);
#126=PRESENTATION_STYLE_ASSIGNMENT((#127));
#127=SURFACE_STYLE_USAGE(.BOTH.,#128);
#128=SURFACE_SIDE_STYLE('',(#129));
#129=SURFACE_STYLE_FILL_AREA(#130);
#130=FILL_AREA_STYLE('',(#131));
#131=FILL_AREA_STYLE_COLOUR('',#132);
#132=COLOUR_RGB('',0.647058823529412,0.647058823529412,0.647058823529412);
#133=MANIFOLD_SOLID_BREP('wheel',#124);
#134=SHAPE_DEFINITION_REPRESENTATION(#445,#135);
#135=SHAPE_REPRESENTATION('wheel',(#136),#440);
#136=AXIS2_PLACEMENT_3D('',#193,#155,#156);
#137=AXIS2_PLACEMENT_3D('',#194,#157,#158);
#138=AXIS2_PLACEMENT_3D('',#195,#159,#160);
#139=AXIS2_PLACEMENT_3D('',#197,#161,#162);
#140=AXIS2_PLACEMENT_3D('',#199,#163,#164);
#141=AXIS2_PLACEMENT_3D('',#200,#165,#166);
#142=AXIS2_PLACEMENT_3D('',#202,#167,#168);
#143=AXIS2_PLACEMENT_3D('',#204,#169,#170);
#144=AXIS2_PLACEMENT_3D('',#205,#171,#172);
#145=AXIS2_PLACEMENT_3D('',#425,#173,#174);
#146=AXIS2_PLACEMENT_3D('',#426,#175,#176);
#147=AXIS2_PLACEMENT_3D('',#427,#177,#178);
#148=AXIS2_PLACEMENT_3D('',#429,#179,#180);
#149=AXIS2_PLACEMENT_3D('',#430,#181,#182);
#150=AXIS2_PLACEMENT_3D('',#432,#183,#184);
#151=AXIS2_PLACEMENT_3D('',#434,#185,#186);
#152=AXIS2_PLACEMENT_3D('',#435,#187,#188);
#153=AXIS2_PLACEMENT_3D('',#437,#189,#190);
#154=AXIS2_PLACEMENT_3D('',#438,#191,#192);
#155=DIRECTION('',(0.,0.,1.));
#156=DIRECTION('',(1.,0.,0.));
#157=DIRECTION('',(0.,0.,1.));
#158=DIRECTION('',(1.,0.,0.));
#159=DIRECTION('',(0.,0.,1.));
#160=DIRECTION('',(1.,0.,0.));
#161=DIRECTION('',(0.,0.,1.));
#162=DIRECTION('',(1.,0.,0.));
#163=DIRECTION('',(0.,0.,1.));
#164=DIRECTION('',(1.,0.,0.));
#165=DIRECTION('',(0.,0.,1.));
#166=DIRECTION('',(1.,0.,0.));
#167=DIRECTION('',(0.,0.,1.));
#168=DIRECTION('',(1.,0.,0.));
#169=DIRECTION('',(0.,0.,1.));
#170=DIRECTION('',(1.,0.,0.));
#171=DIRECTION('',(0.,0.,1.));
#172=DIRECTION('',(1.,0.,0.));
#173=DIRECTION('',(0.,0.,1.));
#174=DIRECTION('',(1.,0.,0.));
#175=DIRECTION('',(0.,0.,1.));
#176=DIRECTION('',(1.,0.,0.));
#177=DIRECTION('',(0.,0.,1.));
#178=DIRECTION('',(1.,0.,0.));
#179=DIRECTION('',(0.,0.,1.));
#180=DIRECTION('',(1.,0.,0.));
#181=DIRECTION('',(0.,0.,1.));
#182=DIRECTION('',(1.,0.,0.));
#183=DIRECTION('',(0.,0.,1.));
#184=DIRECTION('',(1.,0.,0.));
#185=DIRECTION('',(0.,0.,1.));
#186=DIRECTION('',(1.,0.,0.));
#187=DIRECTION('',(0.,0.,1.));
#188=DIRECTION('',(1.,0.,0.));
#189=DIRECTION('',(0.,0.,1.));
#190=DIRECTION('',(1.,0.,0.));
#191=DIRECTION('',(0.,0.,1.));
#192=DIRECTION('',(1.,0.,0.));
#193=CARTESIAN_POINT('',(0.,0.,0.));
#194=CARTESIAN_POINT('',(0.148575025836643,-0.103399926091605,0.0017));
#195=CARTESIAN_POINT('',(0.148575025836643,-0.103399926091605,0.0017));
#196=CARTESIAN_POINT('',(0.170575025836643,-0.103399926091605,0.0017));
#197=CARTESIAN_POINT('',(0.148575025836643,-0.103399926091605,0.0043));
#198=CARTESIAN_POINT('',(0.170575025836643,-0.103399926091605,0.0043));
#199=CARTESIAN_POINT('',(0.148575085418284,-0.103399888733296,0.0017));
#200=CARTESIAN_POINT('',(0.148575085418284,-0.103399888733296,0.0017));
#201=CARTESIAN_POINT('',(0.166075085418284,-0.103399888733296,0.0017));
#202=CARTESIAN_POINT('',(0.148575085418284,-0.103399888733296,0.0045));
#203=CARTESIAN_POINT('',(0.166075085418284,-0.103399888733296,0.0045));
#204=CARTESIAN_POINT('',(0.148575,-0.1034,0.0017));
#205=CARTESIAN_POINT('',(0.148575,-0.0831249999999873,0.0045));
#206=CARTESIAN_POINT('',(0.159781430759201,-0.119926413807877,0.0043));
#207=CARTESIAN_POINT('',(0.159781430759201,-0.119926413807877,0.0055));
#208=CARTESIAN_POINT('',(0.161838553763615,-0.118317085562372,0.0043));
#209=CARTESIAN_POINT('',(0.161838553763615,-0.118317085562372,0.0055));
#210=CARTESIAN_POINT('',(0.163675410961069,-0.116460632918568,0.0043));
#211=CARTESIAN_POINT('',(0.163675410961069,-0.116460632918568,0.0055));
#212=CARTESIAN_POINT('',(0.165253507933112,-0.114378693606492,0.0043));
#213=CARTESIAN_POINT('',(0.165253507933112,-0.114378693606492,0.0055));
#214=CARTESIAN_POINT('',(0.166537827565773,-0.112104509032793,0.0043));
#215=CARTESIAN_POINT('',(0.166537827565773,-0.112104509032793,0.0055));
#216=CARTESIAN_POINT('',(0.167524163068015,-0.109686697185163,0.0043));
#217=CARTESIAN_POINT('',(0.167524163068015,-0.109686697185163,0.0055));
#218=CARTESIAN_POINT('',(0.168185282545599,-0.107160149282635,0.0043));
#219=CARTESIAN_POINT('',(0.168185282545599,-0.107160149282635,0.0055));
#220=CARTESIAN_POINT('',(0.16850172589545,-0.104568728909897,0.0043));
#221=CARTESIAN_POINT('',(0.16850172589545,-0.104568728909897,0.0055));
#222=CARTESIAN_POINT('',(0.168487882982999,-0.101958519481317,0.0043));
#223=CARTESIAN_POINT('',(0.168487882982999,-0.101958519481317,0.0055));
#224=CARTESIAN_POINT('',(0.168131841714747,-0.0993718358758873,0.0043));
#225=CARTESIAN_POINT('',(0.168131841714747,-0.0993718358758873,0.0055));
#226=CARTESIAN_POINT('',(0.167432430848324,-0.0968559786505241,0.0043));
#227=CARTESIAN_POINT('',(0.167432430848324,-0.0968559786505241,0.0055));
#228=CARTESIAN_POINT('',(0.166420627057388,-0.0944484979749439,0.0043));
#229=CARTESIAN_POINT('',(0.166420627057388,-0.0944484979749439,0.0055));
#230=CARTESIAN_POINT('',(0.165101425011472,-0.092193682326186,0.0043));
#231=CARTESIAN_POINT('',(0.165101425011472,-0.092193682326186,0.0055));
#232=CARTESIAN_POINT('',(0.163492158079507,-0.0901365292327361,0.0043));
#233=CARTESIAN_POINT('',(0.163492158079507,-0.0901365292327361,0.0055));
#234=CARTESIAN_POINT('',(0.161635755721614,-0.0882996178148649,0.0043));
#235=CARTESIAN_POINT('',(0.161635755721614,-0.0882996178148649,0.0055));
#236=CARTESIAN_POINT('',(0.159553799197362,-0.0867215350588977,0.0043));
#237=CARTESIAN_POINT('',(0.159553799197362,-0.0867215350588977,0.0055));
#238=CARTESIAN_POINT('',(0.157279605811288,-0.0854372199632434,0.0043));
#239=CARTESIAN_POINT('',(0.157279605811288,-0.0854372199632434,0.0055));
#240=CARTESIAN_POINT('',(0.154861796696568,-0.0844508895580653,0.0043));
#241=CARTESIAN_POINT('',(0.154861796696568,-0.0844508895580653,0.0055));
#242=CARTESIAN_POINT('',(0.152335278288492,-0.0837897970806845,0.0043));
#243=CARTESIAN_POINT('',(0.152335278288492,-0.0837897970806845,0.0055));
#244=CARTESIAN_POINT('',(0.149743848011211,-0.0834733163380643,0.0043));
#245=CARTESIAN_POINT('',(0.149743848011211,-0.0834733163380643,0.0055));
#246=CARTESIAN_POINT('',(0.14713361148599,-0.0834870998416315,0.0043));
#247=CARTESIAN_POINT('',(0.14713361148599,-0.0834870998416315,0.0055));
#248=CARTESIAN_POINT('',(0.144546924171297,-0.0838431176453635,0.0043));
#249=CARTESIAN_POINT('',(0.144546924171297,-0.0838431176453635,0.0055));
#250=CARTESIAN_POINT('',(0.142031047690331,-0.0845425378516471,0.0043));
#251=CARTESIAN_POINT('',(0.142031047690331,-0.0845425378516471,0.0055));
#252=CARTESIAN_POINT('',(0.139623540124525,-0.0855543605044212,0.0043));
#253=CARTESIAN_POINT('',(0.139623540124525,-0.0855543605044212,0.0055));
#254=CARTESIAN_POINT('',(0.137368692475476,-0.0868735713676433,0.0043));
#255=CARTESIAN_POINT('',(0.137368692475476,-0.0868735713676433,0.0055));
#256=CARTESIAN_POINT('',(0.135311528279744,-0.0884828415576049,0.0043));
#257=CARTESIAN_POINT('',(0.135311528279744,-0.0884828415576049,0.0055));
#258=CARTESIAN_POINT('',(0.1334746179828,-0.090339244460073,0.0043));
#259=CARTESIAN_POINT('',(0.1334746179828,-0.090339244460073,0.0055));
#260=CARTESIAN_POINT('',(0.131896535013974,-0.0924212007539976,0.0043));
#261=CARTESIAN_POINT('',(0.131896535013974,-0.0924212007539976,0.0055));
#262=CARTESIAN_POINT('',(0.130612219975427,-0.0946953942019024,0.0043));
#263=CARTESIAN_POINT('',(0.130612219975427,-0.0946953942019024,0.0055));
#264=CARTESIAN_POINT('',(0.12962588955481,-0.0971132032999482,0.0043));
#265=CARTESIAN_POINT('',(0.12962588955481,-0.0971132032999482,0.0055));
#266=CARTESIAN_POINT('',(0.128964797081526,-0.0996397217124508,0.0043));
#267=CARTESIAN_POINT('',(0.128964797081526,-0.0996397217124508,0.0055));
#268=CARTESIAN_POINT('',(0.128648316337829,-0.102231151988578,0.0043));
#269=CARTESIAN_POINT('',(0.128648316337829,-0.102231151988578,0.0055));
#270=CARTESIAN_POINT('',(0.128662099841706,-0.104841388514155,0.0043));
#271=CARTESIAN_POINT('',(0.128662099841706,-0.104841388514155,0.0055));
#272=CARTESIAN_POINT('',(0.129018117645351,-0.107428075828773,0.0043));
#273=CARTESIAN_POINT('',(0.129018117645351,-0.107428075828773,0.0055));
#274=CARTESIAN_POINT('',(0.129717537851651,-0.109943952309714,0.0043));
#275=CARTESIAN_POINT('',(0.129717537851651,-0.109943952309714,0.0055));
#276=CARTESIAN_POINT('',(0.130729360504428,-0.112351459875455,0.0043));
#277=CARTESIAN_POINT('',(0.130729360504428,-0.112351459875455,0.0055));
#278=CARTESIAN_POINT('',(0.132048571367654,-0.114606307524474,0.0043));
#279=CARTESIAN_POINT('',(0.132048571367654,-0.114606307524474,0.0055));
#280=CARTESIAN_POINT('',(0.133657841557618,-0.116663471720268,0.0043));
#281=CARTESIAN_POINT('',(0.133657841557618,-0.116663471720268,0.0055));
#282=CARTESIAN_POINT('',(0.135514244460016,-0.118500382017087,0.0043));
#283=CARTESIAN_POINT('',(0.135514244460016,-0.118500382017087,0.0055));
#284=CARTESIAN_POINT('',(0.137596200754131,-0.120078464986503,0.0043));
#285=CARTESIAN_POINT('',(0.137596200754131,-0.120078464986503,0.0055));
#286=CARTESIAN_POINT('',(0.139870394201322,-0.121362780022848,0.0043));
#287=CARTESIAN_POINT('',(0.139870394201322,-0.121362780022848,0.0055));
#288=CARTESIAN_POINT('',(0.142288203302195,-0.122349110451712,0.0043));
#289=CARTESIAN_POINT('',(0.142288203302195,-0.122349110451712,0.0055));
#290=CARTESIAN_POINT('',(0.144814721704399,-0.123010202894526,0.0043));
#291=CARTESIAN_POINT('',(0.144814721704399,-0.123010202894526,0.0055));
#292=CARTESIAN_POINT('',(0.147406152019205,-0.123326683752427,0.0043));
#293=CARTESIAN_POINT('',(0.147406152019205,-0.123326683752427,0.0055));
#294=CARTESIAN_POINT('',(0.150016388399799,-0.123312899820108,0.0043));
#295=CARTESIAN_POINT('',(0.150016388399799,-0.123312899820108,0.0055));
#296=CARTESIAN_POINT('',(0.152603076250544,-0.122956883600555,0.0043));
#297=CARTESIAN_POINT('',(0.152603076250544,-0.122956883600555,0.0055));
#298=CARTESIAN_POINT('',(0.155119004977784,-0.122257442371582,0.0043));
#299=CARTESIAN_POINT('',(0.155119004977784,-0.122257442371582,0.0055));
#300=CARTESIAN_POINT('',(0.157526568490705,-0.121245610123834,0.0043));
#301=CARTESIAN_POINT('',(0.157526568490705,-0.121245610123834,0.0055));
#302=CARTESIAN_POINT('',(0.159781430759201,-0.119926413807877,0.0043));
#303=CARTESIAN_POINT('',(0.159781430759201,-0.119926413807877,0.0055));
#304=CARTESIAN_POINT('',(0.161838553763615,-0.118317085562372,0.0043));
#305=CARTESIAN_POINT('',(0.161838553763615,-0.118317085562372,0.0055));
#306=CARTESIAN_POINT('',(0.163675410961069,-0.116460632918568,0.0043));
#307=CARTESIAN_POINT('',(0.163675410961069,-0.116460632918568,0.0055));
#308=CARTESIAN_POINT('',(0.159103987074038,-0.120395350360607,0.0043));
#309=CARTESIAN_POINT('',(0.161261757175894,-0.118841390419662,0.0043));
#310=CARTESIAN_POINT('',(0.163164453837875,-0.116985977286988,0.0043));
#311=CARTESIAN_POINT('',(0.164761255477096,-0.115108120940426,0.0043));
#312=CARTESIAN_POINT('',(0.166090531436046,-0.113005873698628,0.0043));
#313=CARTESIAN_POINT('',(0.167148488000185,-0.110648293571042,0.0043));
#314=CARTESIAN_POINT('',(0.167975956937579,-0.108190961400946,0.0043));
#315=CARTESIAN_POINT('',(0.168429559593579,-0.105652852978834,0.0043));
#316=CARTESIAN_POINT('',(0.168509191267163,-0.103005639693805,0.0043));
#317=CARTESIAN_POINT('',(0.168334590988883,-0.100413017493868,0.0043));
#318=CARTESIAN_POINT('',(0.167782394118074,-0.0978904593323014,0.0043));
#319=CARTESIAN_POINT('',(0.166841363936039,-0.0954088594897844,0.0043));
#320=CARTESIAN_POINT('',(0.165687390245826,-0.0930784808593173,0.0043));
#321=CARTESIAN_POINT('',(0.164211280981248,-0.0909581398561587,0.0043));
#322=CARTESIAN_POINT('',(0.162392132900915,-0.089025856258542,0.0043));
#323=CARTESIAN_POINT('',(0.160434106286984,-0.0873147699274672,0.0043));
#324=CARTESIAN_POINT('',(0.158258143992456,-0.0859207568323674,0.0043));
#325=CARTESIAN_POINT('',(0.155838172344461,-0.084832189611269,0.0043));
#326=CARTESIAN_POINT('',(0.153375038664402,-0.0840009459752715,0.0043));
#327=CARTESIAN_POINT('',(0.150832226744722,-0.0835457086162678,0.0043));
#328=CARTESIAN_POINT('',(0.148181516948987,-0.0834657883160732,0.0043));
#329=CARTESIAN_POINT('',(0.14558854992651,-0.0836402906880231,0.0043));
#330=CARTESIAN_POINT('',(0.143065774434392,-0.0841924809266576,0.0043));
#331=CARTESIAN_POINT('',(0.140583945731677,-0.0851336031300928,0.0043));
#332=CARTESIAN_POINT('',(0.138253502232706,-0.0862876019198124,0.0043));
#333=CARTESIAN_POINT('',(0.136133144014675,-0.0877637142982635,0.0043));
#334=CARTESIAN_POINT('',(0.134200858307295,-0.0895828652067329,0.0043));
#335=CARTESIAN_POINT('',(0.132489770157473,-0.0915408930404167,0.0043));
#336=CARTESIAN_POINT('',(0.131095757124142,-0.0937168554819835,0.0043));
#337=CARTESIAN_POINT('',(0.130007189634558,-0.0961368275710582,0.0043));
#338=CARTESIAN_POINT('',(0.129175945993529,-0.0985999612755437,0.0043));
#339=CARTESIAN_POINT('',(0.128720708616405,-0.101142773229327,0.0043));
#340=CARTESIAN_POINT('',(0.12864078831615,-0.103793483046026,0.0043));
#341=CARTESIAN_POINT('',(0.128815290687375,-0.106386450070937,0.0043));
#342=CARTESIAN_POINT('',(0.129367480926265,-0.108909225564414,0.0043));
#343=CARTESIAN_POINT('',(0.130308603129924,-0.111391054268096,0.0043));
#344=CARTESIAN_POINT('',(0.131462601920047,-0.113721497767001,0.0043));
#345=CARTESIAN_POINT('',(0.132938714296237,-0.115841855985912,0.0043));
#346=CARTESIAN_POINT('',(0.134757865210141,-0.117774141691572,0.0043));
#347=CARTESIAN_POINT('',(0.136715893021868,-0.119485229848672,0.0043));
#348=CARTESIAN_POINT('',(0.138891855597929,-0.120879242837458,0.0043));
#349=CARTESIAN_POINT('',(0.141311827372721,-0.121967810431108,0.0043));
#350=CARTESIAN_POINT('',(0.14377496234991,-0.122799053650989,0.0043));
#351=CARTESIAN_POINT('',(0.146317766503035,-0.123254293609597,0.0043));
#352=CARTESIAN_POINT('',(0.148968494548599,-0.123334207877257,0.0043));
#353=CARTESIAN_POINT('',(0.151561387782611,-0.123159729926201,0.0043));
#354=CARTESIAN_POINT('',(0.154117815939752,-0.122600122374487,0.0043));
#355=CARTESIAN_POINT('',(0.156663106712274,-0.121627598850524,0.0043));
#356=CARTESIAN_POINT('',(0.159103987074038,-0.120395350360607,0.0043));
#357=CARTESIAN_POINT('',(0.161261757175894,-0.118841390419662,0.0043));
#358=CARTESIAN_POINT('',(0.163164453837875,-0.116985977286988,0.0043));
#359=CARTESIAN_POINT('',(0.161795727875285,-0.118281126220196,0.0043));
#360=CARTESIAN_POINT('',(0.163307143716769,-0.116841705298922,0.0055));
#361=CARTESIAN_POINT('',(0.161412569166845,-0.118706468062152,0.0055));
#362=CARTESIAN_POINT('',(0.158888750265795,-0.120567138557394,0.0055));
#363=CARTESIAN_POINT('',(0.155447373457445,-0.122208479968326,0.0055));
#364=CARTESIAN_POINT('',(0.152350505605793,-0.12302442197964,0.0055));
#365=CARTESIAN_POINT('',(0.149786722748155,-0.12330244816944,0.0055));
#366=CARTESIAN_POINT('',(0.14781459560199,-0.123322210597413,0.0055));
#367=CARTESIAN_POINT('',(0.145855369027232,-0.123154087702825,0.0055));
#368=CARTESIAN_POINT('',(0.143949331114185,-0.122797430207313,0.0055));
#369=CARTESIAN_POINT('',(0.142084868801226,-0.122253662661653,0.0055));
#370=CARTESIAN_POINT('',(0.140252096396631,-0.121516104367648,0.0055));
#371=CARTESIAN_POINT('',(0.138503443657016,-0.120610046656059,0.0055));
#372=CARTESIAN_POINT('',(0.136878123302732,-0.119550759874076,0.0055));
#373=CARTESIAN_POINT('',(0.135363028326335,-0.118334463982499,0.0055));
#374=CARTESIAN_POINT('',(0.133951599865921,-0.116951027475576,0.0055));
#375=CARTESIAN_POINT('',(0.13268323941443,-0.115444780478987,0.0055));
#376=CARTESIAN_POINT('',(0.131587322617804,-0.113844084753847,0.0055));
#377=CARTESIAN_POINT('',(0.130653242732251,-0.112140449712916,0.0055));
#378=CARTESIAN_POINT('',(0.129878726172336,-0.110321773053011,0.0055));
#379=CARTESIAN_POINT('',(0.129283476289402,-0.108444956815189,0.0055));
#380=CARTESIAN_POINT('',(0.128883573998313,-0.106547450004904,0.0055));
#381=CARTESIAN_POINT('',(0.128672481048425,-0.104617042088753,0.0055));
#382=CARTESIAN_POINT('',(0.128652678094785,-0.102642376660549,0.0055));
#383=CARTESIAN_POINT('',(0.128820780829614,-0.100681090025316,0.0055));
#384=CARTESIAN_POINT('',(0.129177442357326,-0.0987748646524268,0.0055));
#385=CARTESIAN_POINT('',(0.129721231356424,-0.0969101427518313,0.0055));
#386=CARTESIAN_POINT('',(0.13045883751301,-0.0950772149040742,0.0055));
#387=CARTESIAN_POINT('',(0.131364933404219,-0.0933284765849909,0.0055));
#388=CARTESIAN_POINT('',(0.132424224043939,-0.0917031449500059,0.0055));
#389=CARTESIAN_POINT('',(0.133640525872089,-0.0901880391077019,0.0055));
#390=CARTESIAN_POINT('',(0.135023967572454,-0.0887766041867675,0.0055));
#391=CARTESIAN_POINT('',(0.136530217969829,-0.0875082405642349,0.0055));
#392=CARTESIAN_POINT('',(0.138130914088924,-0.0864123233070316,0.0055));
#393=CARTESIAN_POINT('',(0.139834549611995,-0.085478243036885,0.0055));
#394=CARTESIAN_POINT('',(0.141653226635536,-0.0847037262769711,0.0055));
#395=CARTESIAN_POINT('',(0.143530043091305,-0.0841084763128732,0.0055));
#396=CARTESIAN_POINT('',(0.145427549928609,-0.0837085740079801,0.0055));
#397=CARTESIAN_POINT('',(0.147357957874394,-0.0834974810495869,0.0055));
#398=CARTESIAN_POINT('',(0.149332623323046,-0.083477678093611,0.0055));
#399=CARTESIAN_POINT('',(0.151293909970074,-0.0836457808290886,0.0055));
#400=CARTESIAN_POINT('',(0.153200135343715,-0.0840024423559004,0.0055));
#401=CARTESIAN_POINT('',(0.155064857248697,-0.084546231358113,0.0055));
#402=CARTESIAN_POINT('',(0.156897785086816,-0.0852838375040082,0.0055));
#403=CARTESIAN_POINT('',(0.158646523446162,-0.0861899334363915,0.0055));
#404=CARTESIAN_POINT('',(0.160271854932746,-0.087249223923212,0.0055));
#405=CARTESIAN_POINT('',(0.161786961329144,-0.0884655263220565,0.0055));
#406=CARTESIAN_POINT('',(0.163198394182469,-0.0898489658927575,0.0055));
#407=CARTESIAN_POINT('',(0.164466765521686,-0.0913552242383978,0.0055));
#408=CARTESIAN_POINT('',(0.165562679082095,-0.0929559075104961,0.0055));
#409=CARTESIAN_POINT('',(0.166496749051023,-0.0946595199470798,0.0055));
#410=CARTESIAN_POINT('',(0.167271238388578,-0.0964781374779559,0.0055));
#411=CARTESIAN_POINT('',(0.167866481067004,-0.0983549521458693,0.0055));
#412=CARTESIAN_POINT('',(0.168266393499531,-0.100252461765296,0.0055));
#413=CARTESIAN_POINT('',(0.16847750904897,-0.102182862590233,0.0055));
#414=CARTESIAN_POINT('',(0.168497347606036,-0.104157552804087,0.0055));
#415=CARTESIAN_POINT('',(0.168329296245057,-0.106118743419236,0.0055));
#416=CARTESIAN_POINT('',(0.167972632948442,-0.108024974976188,0.0055));
#417=CARTESIAN_POINT('',(0.167428871101225,-0.109889646843362,0.0055));
#418=CARTESIAN_POINT('',(0.166678105327025,-0.111755174167677,0.0055));
#419=CARTESIAN_POINT('',(0.165736212802823,-0.113561811907529,0.0055));
#420=CARTESIAN_POINT('',(0.164607548228971,-0.115263851400182,0.0055));
#421=CARTESIAN_POINT('',(0.163307143716769,-0.116841705298922,0.0055));
#422=CARTESIAN_POINT('',(0.161412569166845,-0.118706468062152,0.0055));
#423=CARTESIAN_POINT('',(0.158888750265795,-0.120567138557394,0.0055));
#424=CARTESIAN_POINT('',(0.161795727886038,-0.118281126210632,0.0055));
#425=CARTESIAN_POINT('',(0.148575025836643,-0.103399926091605,0.0043));
#426=CARTESIAN_POINT('',(0.148575,-0.0831249999999873,0.0055));
#427=CARTESIAN_POINT('',(0.148575025836643,-0.103399926091605,0.0055));
#428=CARTESIAN_POINT('',(0.155825025836643,-0.103399926091605,0.0055));
#429=CARTESIAN_POINT('',(0.148575025836643,-0.103399926091605,0.0052));
#430=CARTESIAN_POINT('',(0.148575025836643,-0.103399926091605,0.0052));
#431=CARTESIAN_POINT('',(0.155575025836643,-0.103399926091605,0.0052));
#432=CARTESIAN_POINT('',(0.148575025836643,-0.103399926091605,0.0055));
#433=CARTESIAN_POINT('',(0.155575025836643,-0.103399926091605,0.0055));
#434=CARTESIAN_POINT('',(0.148575025836643,-0.103399926091605,0.0052));
#435=CARTESIAN_POINT('',(0.148575025836643,-0.103399926091605,0.0052));
#436=CARTESIAN_POINT('',(0.155825025836643,-0.103399926091605,0.0052));
#437=CARTESIAN_POINT('',(0.148575025836643,-0.103399926091605,0.0052));
#438=CARTESIAN_POINT('',(0.148575,-0.0831249999999873,0.0055));
#439=MECHANICAL_DESIGN_GEOMETRIC_PRESENTATION_REPRESENTATION('',(#125),
#440);
#440=(
GEOMETRIC_REPRESENTATION_CONTEXT(3)
GLOBAL_UNCERTAINTY_ASSIGNED_CONTEXT((#441))
GLOBAL_UNIT_ASSIGNED_CONTEXT((#444,#443,#442))
REPRESENTATION_CONTEXT('wheel','TOP_LEVEL_ASSEMBLY_PART')
);
#441=UNCERTAINTY_MEASURE_WITH_UNIT(LENGTH_MEASURE(2.E-5),#444,
'DISTANCE_ACCURACY_VALUE','Maximum Tolerance applied to model');
#442=(
NAMED_UNIT(*)
SI_UNIT($,.STERADIAN.)
SOLID_ANGLE_UNIT()
);
#443=(
NAMED_UNIT(*)
PLANE_ANGLE_UNIT()
SI_UNIT($,.RADIAN.)
);
#444=(
LENGTH_UNIT()
NAMED_UNIT(*)
SI_UNIT($,.METRE.)
);
#445=PRODUCT_DEFINITION_SHAPE('','',#446);
#446=PRODUCT_DEFINITION('','',#448,#447);
#447=PRODUCT_DEFINITION_CONTEXT('',#454,'design');
#448=PRODUCT_DEFINITION_FORMATION_WITH_SPECIFIED_SOURCE('','',#450,
 .NOT_KNOWN.);
#449=PRODUCT_RELATED_PRODUCT_CATEGORY('','',(#450));
#450=PRODUCT('wheel','wheel','wheel',(#452));
#451=PRODUCT_CATEGORY('','');
#452=PRODUCT_CONTEXT('',#454,'mechanical');
#453=APPLICATION_PROTOCOL_DEFINITION('international standard',
'ap242_managed_model_based_3d_engineering',2020,#454);
#454=APPLICATION_CONTEXT('managed model based 3d engineering');
ENDSEC;
END-ISO-10303-21;
